<?xml version="1.0" encoding="utf-8"?>
<!-- Generator: Adobe Illustrator 19.1.0, SVG Export Plug-In . SVG Version: 6.00 Build 0)  -->
<svg version="1.1" id="Layer_1" xmlns="http://www.w3.org/2000/svg" xmlns:xlink="http://www.w3.org/1999/xlink" x="0px" y="0px"
	 viewBox="0 0 283.3 208" style="enable-background:new 0 0 283.3 208;" xml:space="preserve">
<style type="text/css">
	.st0{fill:#FFFFFF;}
</style>
<g>
	<path class="st0" d="M129.2,33.3c0.7,0.6,1.7,1,2.6,1c0.1,0,0.2,0,0.3,0l12.9-1c1.1-0.1,2.1-0.6,2.8-1.4c0.7-0.8,1-1.9,1-2.9
		l-1.3-16.5c-0.1-1.1-0.6-2.1-1.4-2.8c-0.8-0.7-1.9-1-2.9-1l-12.9,1c-1.1,0.1-2.1,0.6-2.8,1.4c-0.7,0.8-1,1.9-1,2.9l1.3,16.5
		C127.8,31.6,128.3,32.6,129.2,33.3z M129.7,13.1c0.2-0.2,0.4-0.3,0.7-0.4l12.9-1c0,0,0.1,0,0.1,0c0.2,0,0.5,0.1,0.7,0.2
		c0.2,0.2,0.3,0.4,0.4,0.7l1.3,16.5c0,0.3-0.1,0.5-0.2,0.8c-0.2,0.2-0.4,0.3-0.7,0.4l-12.9,1c-0.3,0-0.5-0.1-0.8-0.2
		c-0.2-0.2-0.3-0.4-0.4-0.7l-1.3-16.5C129.4,13.5,129.5,13.3,129.7,13.1z"/>
	<path class="st0" d="M84.7,40.5H59.2V66h25.5V40.5z M81.7,63H62.2V43.5h19.5V63z"/>
	<path class="st0" d="M34.7,149H18.4c-0.9,0-1.5,0.7-1.5,1.6l0,0c0,0.8,0.7,1.4,1.5,1.4h16c0,0,0.1,0,0.1,0c0.1,0,0.2,0,0.4,0
		C36.8,151.9,36.7,149,34.7,149z"/>
	<path class="st0" d="M65.2,147C65.2,146.9,65.3,146.9,65.2,147c1.8-0.5,1.5-3-0.3-3H18.1c-0.9,0-1.5,0.7-1.5,1.6l0,0
		c0,0.8,0.7,1.4,1.5,1.4h46.8C65,147,65.1,147,65.2,147z"/>
	<path class="st0" d="M17.8,142h63.5c0.2,0,0.3,0,0.5-0.1c0,0,0,0,0.1,0c1.6-0.6,1.2-2.9-0.5-2.9H70.7c0.1-0.1,0.3-0.1,0.4-0.2
		c1.2-0.5,2.4-1.1,3.5-1.8h19.7c0.2,0,0.4,0,0.6-0.1c0,0,0,0,0.1,0c1.4-0.7,1-2.8-0.6-2.8H78.6c0.2-0.2,0.4-0.4,0.6-0.6
		c0.5-0.5,0.9-0.9,1.3-1.4h17.6c0.8,0,1-0.6,1-1.3v0c1-0.9-0.1-1.6-1-1.6H82.8c0.2-0.3,0.4-0.7,0.6-1c0.2-0.3,0.4-0.7,0.6-1h14.6
		c0.8,0,1.6-0.6,1.6-1.4v0c0-0.9-0.7-1.6-1.6-1.6H85.4c0.2-0.5,0.3-0.9,0.5-1.4c0.1-0.2,0.1-0.4,0.2-0.6h12.8c0.8,0,1.3-0.6,1.3-1.4
		v0c0-0.9-0.4-1.6-1.3-1.6H86.8c0.1-0.5,0.2-1.1,0.2-1.8c0-0.1,0-0.1,0-0.2h12c0.8,0,1.1-0.7,1.1-1.5v0c0-0.8-0.3-1.5-1.1-1.5H87.2
		c0,0,0,0,0,0c0-0.7-0.1-1.3-0.1-2h12c0.8,0,1.2-0.7,1.2-1.5v0c0-0.8-0.4-1.5-1.2-1.5H86.6c0-0.1-0.1-0.3-0.1-0.4
		c-0.1-0.6-0.3-1.1-0.4-1.6h12.8c0.9,0,1.3-0.7,1.3-1.5v0c0-0.8-0.5-1.4-1.3-1.4H85c-0.1-0.3-0.2-0.6-0.4-0.9
		c-0.2-0.4-0.4-0.8-0.6-1.1h14.5c0.9,0,1.6-0.7,1.6-1.6v0c0-0.8-0.8-1.4-1.6-1.4H82.1c-0.3-0.4-0.6-0.9-1-1.3
		c-0.2-0.3-0.4-0.5-0.6-0.7h17.6c0.9,0,1.6-0.8,1.5-1.7c0,0,0,0,0,0c-0.1-0.8-0.7-1.3-1.5-1.3H77.4c-0.7-0.6-1.5-1.2-2.3-1.7
		c-0.2-0.1-0.4-0.2-0.6-0.3h22.9c0.9,0,1.6-0.8,1.6-1.7v0c0-0.7-0.9-1.3-1.6-1.3H67.9c-2.3-0.7-4.7-1-7.2-1c-2.5,0-4.9,0.3-7.2,1
		H14.7c-0.9,0-1.5,0.7-1.5,1.6l0,0c0,0.8,0.7,1.4,1.5,1.4h32.1c-0.2,0.1-0.4,0.2-0.6,0.3c-0.8,0.5-1.5,1.1-2.3,1.7H15
		c-0.9,0-1.8,0.7-1.8,1.6v0c0,0.8,1,1.4,1.8,1.4h25.8c-0.2,0.2-0.4,0.5-0.6,0.7c-0.3,0.4-0.7,0.8-1,1.3H15.3c-0.9,0-1.1,0.7-1.1,1.6
		v0c0,0.8,0.3,1.4,1.1,1.4h22c-0.2,0.4-0.4,0.8-0.6,1.1c-0.1,0.3-0.3,0.6-0.4,0.9H15.6c-0.9,0-1.4,0.7-1.4,1.6v0
		c0,0.8,0.6,1.4,1.4,1.4h19.7c-0.1,0.5-0.3,1-0.4,1.5c0,0.2-0.1,0.3-0.1,0.5H15.9c-0.9,0-1.5,0.7-1.5,1.6l0,0c0,0.8,0.7,1.4,1.5,1.4
		h18.4c-0.1,0.7-0.1,1.3-0.1,1.9c0,0,0,0.1,0,0.1h-18c-0.9,0-1.1,0.7-1.1,1.6v0c0,0.8,0.3,1.4,1.1,1.4h18.1c0,0.1,0,0.1,0,0.2
		c0.1,0.7,0.2,1.3,0.3,1.8h-18c-0.9,0-1.4,0.7-1.4,1.6v0c0,0.8,0.6,1.4,1.4,1.4h18.7c0.1,0.2,0.1,0.4,0.2,0.6
		c0.1,0.5,0.3,0.9,0.5,1.4H16.8c-0.9,0-1.7,0.7-1.7,1.6v0c0,0.8,0.9,1.4,1.7,1.4h20.5c0.2,0.3,0.4,0.7,0.6,1c0.2,0.3,0.4,0.7,0.6,1
		H17.2c-0.9,0-1.5,0.7-1.5,1.6l0,0c0,0.8,0.7,1.4,1.5,1.4h23.6c0.4,0.5,0.9,1,1.3,1.4c0.2,0.2,0.4,0.4,0.6,0.6H17.5
		c-0.9,0-1.3,0.7-1.3,1.6v0c0,0.8,0.5,1.4,1.3,1.4h29.2c1.1,0.7,2.3,1.3,3.5,1.8c0.1,0.1,0.3,0.1,0.4,0.2H17.8
		c-0.9,0-1.5,0.7-1.5,1.6l0,0C16.3,141.4,17,142,17.8,142z M47.1,132.4c-0.8-0.6-1.5-1.2-2.1-1.8c-0.9-0.9-1.7-1.8-2.4-2.8
		c-0.5-0.6-0.9-1.2-1.2-1.9c-0.5-0.9-1-1.8-1.4-2.8c-0.3-0.6-0.5-1.2-0.7-1.8c-0.3-0.9-0.5-1.8-0.7-2.8c-0.1-0.5-0.2-1.1-0.3-1.8
		c-0.1-0.7-0.1-1.5-0.1-2.3c0-0.1,0-0.3,0-0.5c0-0.6,0-1.2,0.1-1.8c0.1-0.9,0.2-1.8,0.5-2.8c0.1-0.7,0.3-1.2,0.5-1.8
		c0.3-1,0.7-1.9,1.1-2.8c0.3-0.6,0.6-1.2,1-1.8c0.6-1,1.2-1.9,1.9-2.8c0.5-0.7,1.1-1.3,1.7-1.8c1-1,2.2-1.9,3.4-2.8
		c1.1-0.7,2.2-1.3,3.4-1.8c2.8-1.2,5.8-1.8,8.9-1.8s6.1,0.6,8.9,1.8c1.2,0.5,2.3,1.1,3.4,1.8c1.2,0.8,2.4,1.7,3.4,2.8
		c0.6,0.6,1.1,1.2,1.7,1.8c0.7,0.8,1.3,1.8,1.9,2.8c0.4,0.6,0.7,1.2,1,1.8c0.4,0.9,0.8,1.8,1.1,2.8c0.2,0.5,0.3,1.1,0.5,1.8
		c0.2,0.9,0.4,1.8,0.5,2.8c0.1,0.6,0.1,1.2,0.1,1.9c0,0.1,0,0.3,0,0.4c0,0.8,0,1.6-0.1,2.3c-0.1,0.7-0.2,1.3-0.3,1.8
		c-0.2,1-0.4,1.9-0.7,2.8c-0.2,0.6-0.4,1.2-0.7,1.8c-0.4,0.9-0.8,1.8-1.4,2.8c-0.3,0.6-0.7,1.2-1.2,1.8c-0.7,1-1.5,1.9-2.4,2.8
		c-0.6,0.6-1.3,1.2-2.1,1.8c-1.4,1.1-3,2-4.7,2.8c-2.8,1.2-5.8,1.8-8.9,1.8s-6.1-0.6-8.9-1.8C50.1,134.4,48.5,133.5,47.1,132.4z"/>
	<path class="st0" d="M78.2,114.5c0-9.7-7.9-17.6-17.5-17.6s-17.5,7.9-17.5,17.6c0,9.7,7.9,17.5,17.5,17.5S78.2,124.2,78.2,114.5z
		 M45.8,114.5c0-8.2,6.7-14.9,14.9-14.9s14.9,6.7,14.9,14.9s-6.7,14.9-14.9,14.9S45.8,122.7,45.8,114.5z"/>
	<path class="st0" d="M280.1,79.6c-2.3-2.5-5.4-3.8-8.7-3.9c-6.5-0.1-15.5-0.2-24.5-0.2L245.4,59l10.6,6.9c1,0.6,2.1,1,3.2,1
		c1.1,0,2.2-0.3,3.1-0.9c1.8-1.1,2.7-3,2.4-5c-0.5-3.3-1.1-6.2-1.8-8.7c-0.8-2.5-1.7-4.5-2.7-6.1c-0.3-0.4-0.2-1,0.1-1.5
		c1.9-2.4,4.2-7.4,4.9-17c0.1-1.8-0.7-3.5-2.2-4.5c-1.7-1.2-3.9-1.4-5.8-0.6l-15.2,6.7c-0.9,0.4-1.6,1-2.2,1.7
		c-2.5-2.9-6.1-5-10.2-5.5l-24.9-3c-2.1-0.3-4.3-0.1-6.3,0.5c-2.4-2.3-5.4-5.1-8.7-7.4l-1.2-0.9l-5.2,7.5c-0.1,0.1-0.1,0.2-0.2,0.2
		c-0.2,0.2-0.4,0.3-0.7,0.3c-0.2,0-0.4,0-0.6-0.2c-0.2-0.1-0.3-0.3-0.4-0.5c-0.1-0.2-0.1-0.4,0-0.7c0-0.1,0-0.1,0.1-0.2l5.3-7.8
		l-1.3-0.8C172.4,4.4,157.3,0,141.7,0c-7.6,0-15.2,1-22.4,3.1l-1.5,0.4l2.8,9c0,0.1,0,0.1,0,0.1c0,0.2,0,0.5-0.2,0.7
		c-0.1,0.2-0.3,0.3-0.5,0.3c-0.2,0.1-0.4,0.1-0.6,0c-0.2-0.1-0.4-0.2-0.5-0.4c-0.1-0.1-0.1-0.2-0.1-0.2l-2.8-8.8l-1.5,0.5
		c-10.7,3.7-20.9,10.1-29.6,18.3c-2-0.6-4.1-0.8-6.2-0.5l-24.9,2.9c-7.5,0.9-13.4,7-14,14.5l-3.2,35.4c-9,0-18,0.1-24.5,0.2
		c-3.3,0.1-6.4,1.4-8.7,3.9C1,82-0.2,85.2,0,88.6l3.7,59.8c0.5,7.2,6,13.1,13.3,14c4.4,0.5,8.4,0.8,12.1,0.8c5.3,0,10.6-0.4,15.9-1
		l3.4,31.5c0.9,8.1,7.7,14.3,15.9,14.3h154.9c8.2,0,15-6.1,15.9-14.3l3.4-31.5c5.2,0.6,10.6,1,15.9,1c3.6,0,7.7-0.3,12.1-0.8
		c7.2-0.9,12.8-6.8,13.3-14l3.7-59.8C283.5,85.2,282.4,82,280.1,79.6z M242.5,34.2c-0.1-0.6,0.3-1.2,1-1.5l15.2-6.7
		c0.3-0.1,0.6-0.2,0.9-0.2c0.5,0,1,0.2,1.3,0.4c0.3,0.2,0.7,0.6,0.7,1.3c-0.7,9.2-2.9,13.4-4.2,15c-0.7,0.9-1.1,2-1.1,3.1
		c0,0.9,0.3,1.8,0.8,2.6c1.8,2.7,3.1,7.2,3.9,13.2c0.1,0.8-0.4,1.2-0.8,1.4c-0.6,0.4-1.5,0.6-2.4,0l-12.9-8.5c0,0-0.1,0-0.1-0.1
		L243.7,40c-0.1-1.6-0.5-3.1-1.1-4.5L242.5,34.2z M99.9,29.1c-0.3-0.5-0.2-1.1,0.2-1.5l10.4-7.6c0.5-0.3,1.1-0.2,1.4,0.2l9.8,13.3
		c0.2,0.3,0.4,0.8,0.6,1.3c-8.6-1.4-16.2-3.5-22.2-5.6L99.9,29.1z M161.5,34.8l-7.6-3c-0.2-0.1-0.4-0.3-0.5-0.6
		c-0.1-0.3-0.1-0.5,0-0.8l7-15c0.1-0.2,0.3-0.4,0.6-0.5c0.3-0.1,0.5-0.1,0.8,0l11.7,5.5c0.2,0.1,0.4,0.3,0.5,0.6
		c0.1,0.3,0.1,0.5-0.1,0.8l-5.2,11.5C166.5,33.9,164.1,34.4,161.5,34.8z M115.8,14.1c0.2,0.5,0.4,0.8,0.5,0.9c0.5,0.7,1.1,1.2,2,1.5
		c0.8,0.3,1.7,0.3,2.5,0c0.9-0.3,1.6-0.8,2-1.5c0.6-0.8,0.8-1.8,0.7-2.8c0-0.2-0.1-0.5-0.2-0.7l-1.9-6c6.5-1.7,13.3-2.6,20.1-2.6
		c14.5,0,28.6,3.9,41,11.3l-3.5,5.2c-0.2,0.4-0.4,0.7-0.5,1.1c-0.3,0.8-0.2,1.7,0,2.5c0.3,0.8,0.8,1.5,1.5,2
		c0.7,0.5,1.6,0.7,2.4,0.7c1,0,1.9-0.4,2.6-1.1c0.2-0.2,0.3-0.4,0.5-0.6l3.5-5c2.2,1.7,4.3,3.6,6.1,5.3c-4.4,2.1-12.4,5.5-22.8,8.2
		l4.2-9.4c0.5-1,0.5-2.1,0.1-3.1c-0.4-1-1.1-1.8-2.1-2.3l-11.7-5.5c-1-0.5-2.1-0.5-3.1-0.1s-1.8,1.1-2.3,2.1l-7,15
		c-0.5,1-0.5,2.1-0.1,3.1c0.4,1,1.1,1.8,2.2,2.3l2.7,1.1c-4.4,0.5-9,0.8-13.8,0.8c-5.7,0-11.1-0.4-16.2-1.1
		c-0.2-1.5-0.8-2.9-1.3-3.6l-9.8-13.3c-1.3-1.8-3.9-2.2-5.7-0.9l-10.4,7.6c-1,0.7-1.5,1.8-1.6,2.9c-3.7-1.4-6.7-2.7-8.8-3.7
		c7.7-7.1,16.7-12.7,26-16.2L115.8,14.1z M43.6,40.4c0.5-5.6,4.9-10.2,10.5-10.8l25-2.9c0.5,0,0.9-0.1,1.4-0.1
		c1.8,0,3.6,0.4,5.2,1.2c2.9,1.4,7.7,3.5,13.9,5.6c0.3,0.1,0.6,0.2,0.9,0.3c10.5,3.5,24.9,6.9,41.3,6.9c7.6,0,14.8-0.7,21.3-1.9
		c0.3,0,0.5-0.1,0.8-0.1c1.7-0.3,3.3-0.6,5-1c0.6-0.1,1.2-0.3,1.8-0.4c12.7-3,22.4-7.1,27.2-9.5c2.1-1,4.4-1.4,6.6-1.1l24.9,3
		c4.6,0.6,8.5,3.8,9.9,8.1c0.3,0.9,0.5,1.8,0.6,2.7l1.3,14.5l1.8,20.6h-2.2c-61.1,0-65.2,4.1-67.9,6.7l-1.6,1.5l-0.4,2.2
		c-0.1,0.5-0.4,2.3-0.7,5.2c-0.2,0-0.4-0.1-0.6-0.1h-56.2c0,0,0,0,0,0c-0.3-2.8-0.6-4.6-0.7-5.1l-0.4-2.2l-1.6-1.4
		c-2.7-2.7-6.8-6.8-67.9-6.8h-2.2L43.6,40.4z M168.7,120.1c-5-1.4-15-3.6-28.7-3.6c-8.8,0-17.5,1-25.7,3c0.4-9.7-0.1-18.3-0.7-24.5
		h55.5c0,2.1-0.1,4.5-0.2,7.2C168.7,107.3,168.5,113.5,168.7,120.1z M44.6,158.2c-5.1,0.6-10.3,1-15.5,1c-3.5,0-7.4-0.3-11.6-0.8
		c-5.3-0.6-9.4-5-9.8-10.3L4,88.3c-0.1-2.2,0.6-4.4,2.2-6c1.5-1.7,3.6-2.6,5.8-2.6c6.4-0.1,15.3-0.2,24.2-0.2c1.3,0,2.7,0,4,0
		c0.8,0,1.5,0,2.2,0h0.2c59.5,0,63.4,3.9,65.2,5.7l0.6,0.6l0.1,0.8c0.1,0.6,0.4,2.7,0.8,6.2c0.1,0.6,0.1,1.3,0.2,2
		c0,0.1,0,0.2,0,0.3c0.4,3.6,1.2,13.1,0.7,24.7c0,0.1,0,0.3,0,0.4c0,0.5,0,1.1-0.1,1.6c-0.3,5.3-0.9,10.4-1.6,15.2
		c-0.2,0.9-0.8,1.7-1.6,2.2c-1.3,0.7-27.9,14-58.5,18.5C47.2,157.9,45.9,158,44.6,158.2z M231,193.3c-0.7,6.1-5.8,10.7-11.9,10.7
		H64.2c-6.1,0-11.2-4.6-11.9-10.7L49,161.6c31.4-4.6,58.5-18.2,59.9-18.9c2-1,3.4-2.9,3.7-5.1c0.7-4.5,1.3-9.2,1.6-14
		c0.2,0,0.5,0,0.7-0.1c8-2,16.5-3,25.1-3c13.6,0,23.4,2.2,28,3.5c0.3,0.1,0.7,0.1,1,0.1c0.1,0,0.1,0,0.1,0c0.3,4.7,0.8,9.2,1.6,13.5
		c0.4,2.2,1.8,4.1,3.7,5.1c1.4,0.7,28.5,14.3,59.9,18.9L231,193.3z M279.3,88.3l-3.7,59.8c-0.3,5.3-4.4,9.6-9.8,10.3
		c-4.2,0.5-8.1,0.8-11.6,0.8c-5.2,0-10.4-0.4-15.4-1c-1.3-0.2-2.7-0.3-4-0.5c-30.6-4.5-57.2-17.8-58.5-18.5
		c-0.9-0.4-1.4-1.2-1.6-2.2c-0.8-4.8-1.4-9.9-1.6-15.2c-0.7-12,0.1-22.4,0.8-29c0.4-3.5,0.7-5.6,0.8-6.2l0.1-0.8l0.7-0.6
		c1.7-1.7,5.6-5.6,65.1-5.6h2.4c1.3,0,2.7,0,4,0c8.9,0,17.8,0.1,24.2,0.2c2.2,0,4.3,1,5.8,2.6C278.7,84,279.5,86.1,279.3,88.3z"/>
	<path class="st0" d="M264.9,149h-16.3c-1.9,0-2,2.9-0.1,3c0.1,0,0.2,0,0.4,0c0,0,0.1,0,0.1,0h16c0.8,0,1.4-0.6,1.5-1.4l0,0
		C266.5,149.7,265.8,149,264.9,149z"/>
	<path class="st0" d="M265.2,144h-46.8c-1.7,0-2.1,2.5-0.4,2.9c0,0,0.1,0,0.1,0c0.1,0,0.2,0,0.4,0h46.8c0.8,0,1.4-0.6,1.5-1.4l0,0
		C266.8,144.7,266.1,144,265.2,144z"/>
	<path class="st0" d="M270.2,90.6L270.2,90.6c0.1-0.9-0.6-1.6-1.5-1.6h-38.8c-2.3-0.7-4.7-1-7.2-1c-2.5,0-4.9,0.3-7.2,1h-29.7
		c-0.7,0-1.6,0.5-1.6,1.3v0c0,0.9,0.7,1.7,1.6,1.7h22.9c-0.2,0.1-0.4,0.2-0.6,0.3c-0.8,0.5-1.5,1.1-2.3,1.7h-20.7
		c-0.8,0-1.4,0.6-1.5,1.3c0,0,0,0,0,0c-0.1,0.9,0.6,1.7,1.5,1.7h17.6c-0.2,0.2-0.4,0.5-0.6,0.7c-0.3,0.4-0.7,0.8-1,1.3h-16.4
		c-0.8,0-1.6,0.6-1.6,1.4v0c0,0.9,0.8,1.6,1.6,1.6h14.5c-0.2,0.4-0.4,0.8-0.6,1.1c-0.1,0.3-0.3,0.6-0.4,0.9h-13.9
		c-0.8,0-1.3,0.6-1.3,1.4v0c0,0.8,0.5,1.5,1.3,1.5h12.8c-0.1,0.5-0.3,1-0.4,1.5c0,0.2-0.1,0.3-0.1,0.5h-12.4c-0.8,0-1.2,0.6-1.2,1.5
		v0c0,0.8,0.3,1.5,1.2,1.5h12c-0.1,0.7-0.1,1.3-0.1,1.9c0,0,0,0.1,0,0.1h-11.9c-0.8,0-1.1,0.7-1.1,1.5v0c0,0.8,0.3,1.5,1.1,1.5h12
		c0,0.1,0,0.1,0,0.2c0.1,0.7,0.2,1.3,0.3,1.8h-12.1c-0.9,0-1.3,0.7-1.3,1.6v0c0,0.8,0.5,1.4,1.3,1.4h12.8c0.1,0.2,0.1,0.4,0.2,0.6
		c0.1,0.5,0.3,0.9,0.5,1.4h-13.2c-0.9,0-1.6,0.7-1.6,1.6v0c0,0.8,0.8,1.4,1.6,1.4h14.6c0.2,0.3,0.4,0.7,0.6,1c0.2,0.3,0.4,0.7,0.6,1
		h-15.3c-0.9,0-2,0.8-1,1.6v0c0,0.8,0.3,1.3,1,1.3h17.6c0.4,0.5,0.9,1,1.3,1.4c0.2,0.2,0.4,0.4,0.6,0.6h-15.8
		c-1.6,0-2.1,2.2-0.6,2.8c0,0,0,0,0.1,0c0.2,0.1,0.4,0.1,0.6,0.1h19.7c1.1,0.7,2.3,1.3,3.5,1.8c0.1,0.1,0.3,0.1,0.4,0.2H202
		c-1.7,0-2.1,2.3-0.5,2.9c0,0,0,0,0.1,0c0.2,0.1,0.3,0.1,0.5,0.1h63.5c0.8,0,1.4-0.6,1.5-1.4l0,0c0.1-0.9-0.6-1.6-1.5-1.6h-32.8
		c0.1-0.1,0.3-0.1,0.4-0.2c1.2-0.5,2.4-1.1,3.5-1.8h29.2c0.8,0,1.3-0.6,1.3-1.4v0c0-0.8-0.4-1.6-1.3-1.6h-25.3
		c0.2-0.2,0.4-0.4,0.6-0.6c0.5-0.5,0.9-0.9,1.3-1.4h23.6c0.8,0,1.4-0.6,1.5-1.4l0,0c0.1-0.9-0.6-1.6-1.5-1.6h-21.3
		c0.2-0.3,0.4-0.7,0.6-1c0.2-0.3,0.4-0.7,0.6-1h20.5c0.8,0,1.7-0.6,1.7-1.4v0c0-0.9-0.8-1.6-1.7-1.6h-19.1c0.2-0.5,0.3-0.9,0.5-1.4
		c0.1-0.2,0.1-0.4,0.2-0.6h18.7c0.8,0,1.4-0.6,1.4-1.4v0c0-0.9-0.5-1.6-1.4-1.6h-18c0.1-0.5,0.2-1.1,0.2-1.8c0-0.1,0-0.1,0-0.2h18.1
		c0.8,0,1.1-0.6,1.1-1.4v0c0-0.9-0.2-1.6-1.1-1.6h-18c0,0,0,0,0,0c0-0.7-0.1-1.3-0.1-2h18.4c0.8,0,1.4-0.6,1.5-1.4l0,0
		c0.1-0.9-0.6-1.6-1.5-1.6h-18.9c0-0.1-0.1-0.3-0.1-0.4c-0.1-0.6-0.3-1.1-0.4-1.6h19.7c0.8,0,1.4-0.6,1.4-1.4v0
		c0-0.9-0.6-1.6-1.4-1.6H247c-0.1-0.3-0.2-0.6-0.4-0.9c-0.2-0.4-0.4-0.8-0.6-1.1h22c0.8,0,1.1-0.6,1.1-1.4v0c0-0.9-0.2-1.6-1.1-1.6
		h-23.9c-0.3-0.4-0.6-0.9-1-1.3c-0.2-0.3-0.4-0.5-0.6-0.7h25.8c0.8,0,1.8-0.6,1.8-1.4v0c0-0.9-0.9-1.6-1.8-1.6h-28.9
		c-0.7-0.6-1.5-1.2-2.3-1.7c-0.2-0.1-0.4-0.2-0.6-0.3h32.1C269.5,92,270.1,91.4,270.2,90.6z M238.4,98.4c0.6,0.6,1.1,1.2,1.7,1.8
		c0.7,0.8,1.3,1.8,1.9,2.8c0.4,0.6,0.7,1.2,1,1.8c0.4,0.9,0.8,1.8,1.1,2.8c0.2,0.5,0.3,1.1,0.5,1.8c0.2,0.9,0.4,1.8,0.5,2.8
		c0.1,0.6,0.1,1.2,0.1,1.9c0,0.1,0,0.3,0,0.4c0,0.8,0,1.6-0.1,2.3c-0.1,0.7-0.2,1.3-0.3,1.8c-0.2,1-0.4,1.9-0.7,2.8
		c-0.2,0.6-0.4,1.2-0.7,1.8c-0.4,0.9-0.8,1.8-1.4,2.8c-0.3,0.6-0.7,1.2-1.2,1.8c-0.7,1-1.5,1.9-2.4,2.8c-0.6,0.6-1.3,1.2-2.1,1.8
		c-1.4,1.1-3,2-4.7,2.8c-2.8,1.2-5.8,1.8-8.9,1.8s-6.1-0.6-8.9-1.8c-1.7-0.7-3.3-1.7-4.7-2.8c-0.8-0.6-1.5-1.2-2.1-1.8
		c-0.9-0.9-1.7-1.8-2.4-2.8c-0.5-0.6-0.9-1.2-1.2-1.9c-0.5-0.9-1-1.8-1.4-2.8c-0.3-0.6-0.5-1.2-0.7-1.8c-0.3-0.9-0.5-1.8-0.7-2.8
		c-0.1-0.5-0.2-1.1-0.3-1.8c-0.1-0.7-0.1-1.5-0.1-2.3c0-0.1,0-0.3,0-0.5c0-0.6,0-1.2,0.1-1.8c0.1-0.9,0.2-1.8,0.5-2.8
		c0.1-0.7,0.3-1.2,0.5-1.8c0.3-1,0.7-1.9,1.1-2.8c0.3-0.6,0.6-1.2,1-1.8c0.6-1,1.2-1.9,1.9-2.8c0.5-0.7,1.1-1.3,1.7-1.8
		c1-1,2.2-1.9,3.4-2.8c1.1-0.7,2.2-1.3,3.4-1.8c2.8-1.2,5.8-1.8,8.9-1.8s6.1,0.6,8.9,1.8c1.2,0.5,2.3,1.1,3.4,1.8
		C236.2,96.5,237.4,97.4,238.4,98.4z"/>
	<path class="st0" d="M205.1,114.5c0,9.7,7.9,17.5,17.5,17.5s17.5-7.9,17.5-17.5c0-9.7-7.9-17.6-17.5-17.6S205.1,104.8,205.1,114.5z
		 M237.5,114.5c0,8.2-6.7,14.9-14.9,14.9s-14.9-6.7-14.9-14.9s6.7-14.9,14.9-14.9S237.5,106.3,237.5,114.5z"/>
	<path class="st0" d="M117.2,84c1.6,2.2,4,3.5,6.7,3.5h35.6c2.7,0,5.1-1.3,6.7-3.5c0.9-1.2,1.4-2.6,1.5-4c0.1-0.7,0-1.3-0.1-2
		c-0.1-0.5-0.2-1-0.4-1.5L167,76l-3.1-8.9c-1.1-3.3-4.3-5.5-7.8-5.5h-29.1c-3.5,0-6.6,2.2-7.8,5.5l-3.1,8.9l-0.2,0.5
		c-0.2,0.5-0.3,1-0.4,1.5c-0.1,0.7-0.1,1.3-0.1,2C115.8,81.4,116.3,82.8,117.2,84z M143.2,65.5h13c1.8,0,3.4,1.1,4,2.8l2.6,7.6
		h-19.6V65.5z M143.2,80h20.5c-0.1,0.6-0.4,1.2-0.7,1.7c-0.8,1.1-2.1,1.8-3.4,1.8h-16.3V80z M123.2,68.4c0.6-1.7,2.2-2.8,4-2.8h12
		V76h-18.6L123.2,68.4z M139.2,80v3.5h-15.3c-1.4,0-2.6-0.7-3.4-1.8c-0.4-0.5-0.6-1.1-0.7-1.7H139.2z"/>
</g>
</svg>
