<?xml version="1.0" encoding="utf-8"?>
<!-- Generator: Adobe Illustrator 18.1.0, SVG Export Plug-In . SVG Version: 6.00 Build 0)  -->
<!DOCTYPE svg PUBLIC "-//W3C//DTD SVG 1.1//EN" "http://www.w3.org/Graphics/SVG/1.1/DTD/svg11.dtd">
<svg version="1.1" id="Layer_1" xmlns="http://www.w3.org/2000/svg" xmlns:xlink="http://www.w3.org/1999/xlink" x="0px" y="0px"
	 viewBox="0 0 960 560" enable-background="new 0 0 960 560" xml:space="preserve">
<image overflow="visible" enable-background="new    " width="2825" height="1648" xlink:href="../../../Week 15/404-photo.jpg"  transform="matrix(0.3398 0 0 0.3398 0 0)">
</image>
<polygon fill="#433F12" points="467.8,374.5 542.6,280 959,309.9 959,388 "/>
<linearGradient id="SVGID_1_" gradientUnits="userSpaceOnUse" x1="266.4713" y1="25.696" x2="236.5059" y2="290.8894">
	<stop  offset="0" style="stop-color:#A49F8C"/>
	<stop  offset="9.956951e-02" style="stop-color:#A49F8C"/>
	<stop  offset="0.2116" style="stop-color:#E6CAAA"/>
	<stop  offset="0.2857" style="stop-color:#FBE9CA"/>
	<stop  offset="0.7922" style="stop-color:#BFB8A5"/>
	<stop  offset="1" style="stop-color:#C2B39F"/>
</linearGradient>
<path fill="url(#SVGID_1_)" d="M0,202c0,0,52.3,170.1,449.9,93.3L539.1-0.1L0-3V202z"/>
<polygon fill="#433F12" points="453.9,365 189.9,383 231,433.1 845,560 960,560 959.5,365 "/>
<path fill="#19200D" d="M0,187.4l6.4-5.9l2,5.9l2.7-3.8l9.4,13.6l4.7-7.8l23.5,23.1L38.1,221l10.7-2.3l5.2,9.8V215l9.6-3.4l1.6,11.7
	l6.7,1.2l-4.7,7.4c0,0,9.8-1.6,10.2,0c0.4,1.6,0,13.7,0,13.7l-2,14.5l9,13.8l7.4-17.4L96,259l2,15l9.4-16.2l3.9,6.3l2.5-9.8l5.2,2.3
	V247l2.9-7.6l3.3,8.6l4.9-2.7v8.7l7.5-5.2c0,0,14.5-5.9,19.6,10.6c5.1,16.4,0,11,0,11l5.1-14.1l3.9,15.3l7.4-7.8l7.4-7l3.1,17.4
	l5.8-3.3l5.1,5.5V266l16.1-10.1l4.3,9l2.7-3.9l9.8,4.3l-8.6-15.3l3.5-1.6l5.1-9.4l7.4,10.2l7.8-1.2l-5.9,7l5.9,5.9l-13.3,10.2
	l13.3-5.5l9,10.6l-7.4,5.5l7.4,2l-4.3,19.6l22.3-33.3l16,22.7l64.2-3.1L321.8,274l11-4.1l-9.8-12.1l21.1-2.3l-1.2,11.7l33.3-3.5
	l8.2,14.3l-31.3,6.1H393l14.9,9l12.9-13.3l18.6,10.6l21.6-7V365L0,403.4V187.4z"/>
<polygon fill="#0F1205" points="562.5,0 559.9,7.9 467.2,293.9 456,285.4 449.6,289.5 439.6,103.1 508.3,17.9 515.5,17.5 507,33 
	525.5,36.5 524.5,-0.1 539.1,-0.1 "/>
<path fill="#0E1005" d="M562.5,0l-23.4-0.1h-14.6l1,36.6L507,33l8.5-15.5l-7.2,0.4L498,18.5l5.5-6l-10-3L508,4.1l-18.1-2.9L483,0
	h-8.5l-3.6,4.7l5.9,1.5l0.3,0.1l-6.3,10.9l4.2,0.6l-4.8,8.1l11,4.8l3.8,6.7l-10.9-5.1L463.8,33l-7-2.2l-0.7,4.6l2.8,3.9l-15.7,4.1
	l2.3,6.5l10.5-6.4l5.2,3.2l-12,8L462,58l-9.9,2.9l21.9-4.4l-3.9,6.2l-17.7,3.5L441,61.7l-7.1,3.5l-9.9,1.2l1.5,4.9l-3.9,1.3l9.3,1.9
	l-5.8,1.3c0,0-8,1-12.4,1.7c-1.6,0.2-2.7,0.4-2.8,0.5c-0.4,0.2,1,0.7,2.1,1.1c0.7,0.3,1.4,0.5,1.4,0.5l-2.2,1.5l-2.5,1.7l1.9-0.2
	l13.7-1.7l-1.7,3l-11.2,2l2.6,5.5l-5.2,3.5h8.3l-3.1,3.7l5.4,2.3H409l2.8,4.7l5.2-1v7.3h-7l-0.3,4.3l-9.9,3.4l-0.3,0.1l-2.5-9
	l-4.2,1.2l-1.9,3.2l3.3,0.9l-8.6,5.8l6.8,0.7l-2.5,2.8l5.5,0.7l3.3-1l4-1.2l-4.4,4l-2.8,2.5l2.5-0.4l8.4-1.5l-1.2,4.5l5.2,1.2
	l-6.8,3.5l-5.5-4.2l-0.6,0.2l-3.8,1.6l0.6,3l-0.2,4.8l2.3,1.4l2.5,1.5L410,141l-9.6,8.1l3.6,1.2l3.2-2l2.6,2l-3.8,1.5l1.6,1.2H400
	l-2.1,6.5l3.8,1.6l0.6,4.4l5.7,1.5l-2.5,4.5l2.5,1.3l-1,2.2l2.2,1.3l-6.5,2.9l13.6,12.8l-11.9-1.6l-4.6,9.1l-1.5,2.9l2,4.4l-6.7,3
	l-0.9,8.9l4.1,6l-5.1,6.1l7,6.4l8-0.7l7.1,11.9l-0.6,3l4,0.5l2.5,3.5l-0.3,0.3l0.6,0.1l8,1.6l-4.6,2.6l12.2,3.3l-7.8,2.6l1.4,2.6
	l2.1,3.9l0.6-0.1l7.4-0.8l5.8,8.6l-0.5,10l-0.2,3.1l2-1.3l15,73.2h19l29-20l33-39.4l6,24.4h55l53-15h36l4,17h76.5l6.5-2.1l58,23.1
	l58-30.4l65,42.4V0H562.5z"/>
<rect x="868.1" y="254.5" transform="matrix(1 1.043231e-03 -1.043231e-03 1 0.3928 -0.9151)" fill="#2C1F10" width="18.5" height="243.1"/>
<polygon fill="#6B3E05" points="960.5,129.8 875.6,49.9 766.7,162.7 879.3,270.7 960.5,187.1 "/>
<polyline fill="none" stroke="#BFB8A5" stroke-miterlimit="10" points="959.5,136.4 874.8,58.4 772.5,163 877.5,262.5 959.5,180.5 
	"/>
<g enable-background="new    ">
	<path fill="#BFB8A5" d="M853.7,165.6h4.5v4.2h-4.5v9.3h-4.9v-9.3h-15.2v-3l14.9-27.8h5.1v26.6H853.7z M839.1,165.6h9.8v-19.1
		l-0.2,0.5L839.1,165.6z"/>
	<path fill="#BFB8A5" d="M884.6,162c0,3.3-0.3,6.1-0.8,8.3c-0.5,2.3-1.2,4.1-2.2,5.5c-0.9,1.4-2.1,2.4-3.4,3s-2.8,0.9-4.4,0.9
		c-1.6,0-3.1-0.3-4.4-0.9s-2.5-1.6-3.4-3s-1.7-3.2-2.2-5.5s-0.8-5-0.8-8.3v-6.1c0-3.3,0.3-6,0.8-8.3c0.5-2.2,1.2-4,2.2-5.4
		s2.1-2.3,3.4-2.9s2.8-0.9,4.4-0.9c1.6,0,3.1,0.3,4.4,0.9c1.3,0.6,2.5,1.6,3.4,2.9s1.7,3.2,2.2,5.4s0.8,5,0.8,8.3V162z M879.7,155
		c0-2.3-0.1-4.2-0.4-5.8c-0.3-1.6-0.6-2.9-1.1-3.8s-1.1-1.7-1.8-2.1c-0.7-0.4-1.6-0.7-2.5-0.7s-1.8,0.2-2.5,0.7
		c-0.7,0.4-1.3,1.2-1.8,2.1s-0.9,2.3-1.1,3.8c-0.3,1.6-0.4,3.5-0.4,5.8v7.8c0,2.2,0.1,4.2,0.4,5.8c0.3,1.6,0.7,2.9,1.2,4
		s1.1,1.8,1.9,2.3c0.7,0.5,1.6,0.7,2.5,0.7c1,0,1.8-0.2,2.5-0.7s1.3-1.2,1.8-2.3s0.9-2.3,1.1-4c0.2-1.6,0.4-3.5,0.4-5.8V155H879.7z"
		/>
	<path fill="#BFB8A5" d="M909.5,165.6h4.5v4.2h-4.5v9.3h-4.9v-9.3h-15.2v-3l14.9-27.8h5.1v26.6H909.5z M894.8,165.6h9.8v-19.1
		l-0.2,0.5L894.8,165.6z"/>
</g>
<path fill="#3F332A" d="M374.7,372.2L0,393v167h863c0,0-546-103-623-135s20-42.9,20-42.9L374.7,372.2z"/>
<path fill="#53473D" d="M390,560c0,0-275-111-274-140s158.8-39.2,158.8-39.2L0,393v167H390z"/>
<linearGradient id="SVGID_2_" gradientUnits="userSpaceOnUse" x1="68.894" y1="471.05" x2="260" y2="471.05">
	<stop  offset="0" style="stop-color:#A49F8C"/>
	<stop  offset="9.956951e-02" style="stop-color:#A49F8C"/>
	<stop  offset="0.2116" style="stop-color:#E6CAAA"/>
	<stop  offset="0.2857" style="stop-color:#FBE9CA"/>
	<stop  offset="0.7922" style="stop-color:#BFB8A5"/>
	<stop  offset="1" style="stop-color:#C2B39F"/>
</linearGradient>
<path fill="url(#SVGID_2_)" d="M260,382.1c0,0-134,11.9-159,24.9s-54,29,35,99l73,54h-18c0,0-114-86-121-114S85,395.2,260,382.1z"/>
<polygon fill="#433F12" points="868,513 852,443 873,478 877.3,443 886.7,478 904,448 886.7,513 "/>
<polygon fill="#211E11" points="285.5,332 287.8,416.9 290.1,410.1 293.7,414.9 291.1,332 "/>
<polygon fill="#2B241A" points="350,330 350,406 352.7,398.1 355,403.3 355,330 "/>
<polygon fill="#053522" stroke="#61604E" stroke-width="2" stroke-miterlimit="10" points="267.3,292.1 368.4,288.5 370,329.2 
	268.6,332.2 "/>
<polygon fill="#5B5B49" points="298,323.8 298,299.5 284.1,299.5 284.1,296 272.1,303.4 283.8,311.7 283.6,306.4 291,306.4 
	291.2,323.8 "/>
<g>
	<g enable-background="new    ">
		<path fill="#515948" d="M310.4,305.8c-0.1,0.1-0.2,0.2-0.3,0.4c-0.1,0.2-0.3,0.3-0.5,0.5c-0.2,0.1-0.5,0.3-0.8,0.4
			s-0.7,0.2-1.2,0.2s-1-0.1-1.4-0.2c-0.4-0.2-0.8-0.4-1.1-0.7c-0.3-0.3-0.6-0.8-0.8-1.3c-0.2-0.5-0.3-1.1-0.3-1.8l-0.1-1.9
			c-0.1-2.8,1-4.2,3.2-4.3c0.5,0,0.9,0,1.3,0.2c0.4,0.1,0.7,0.3,1,0.6c0.3,0.3,0.5,0.6,0.6,0.9c0.2,0.4,0.3,0.8,0.3,1.3H309
			c-0.1-0.6-0.3-1.1-0.6-1.4c-0.3-0.3-0.8-0.5-1.4-0.5c-0.4,0-0.7,0.1-1,0.2s-0.5,0.3-0.6,0.6c-0.2,0.3-0.3,0.6-0.3,1
			c-0.1,0.4-0.1,0.8-0.1,1.4l0.1,1.9c0,0.5,0.1,1,0.2,1.4s0.3,0.7,0.5,1c0.2,0.2,0.4,0.4,0.7,0.5c0.3,0.1,0.6,0.2,0.9,0.2
			s0.5,0,0.7-0.1s0.4-0.1,0.5-0.2s0.2-0.2,0.3-0.2c0.1-0.1,0.1-0.1,0.2-0.2l-0.1-2.3l-1.8,0.1v-1.1l3.1-0.1L310.4,305.8z"/>
		<path fill="#515948" d="M311.9,303c0-0.6,0-1.1,0.2-1.5c0.1-0.4,0.3-0.8,0.6-1.1c0.2-0.3,0.5-0.5,0.9-0.7c0.3-0.2,0.7-0.2,1.1-0.3
			c0.4,0,0.8,0.1,1.1,0.2c0.4,0.1,0.7,0.3,0.9,0.6c0.3,0.3,0.5,0.6,0.6,1.1c0.2,0.4,0.3,0.9,0.3,1.5v0.7c0,0.6,0,1.1-0.2,1.5
			c-0.1,0.4-0.3,0.8-0.6,1.1c-0.2,0.3-0.5,0.5-0.9,0.7s-0.7,0.2-1.1,0.3s-0.8,0-1.1-0.2c-0.4-0.1-0.7-0.3-0.9-0.6s-0.5-0.6-0.6-1.1
			c-0.2-0.4-0.3-0.9-0.3-1.5V303z M313.1,303.6c0,0.4,0.1,0.8,0.2,1.1c0.1,0.3,0.2,0.6,0.4,0.8c0.2,0.2,0.3,0.3,0.5,0.4
			s0.4,0.1,0.7,0.1c1.1,0,1.6-0.9,1.6-2.5v-0.7c0-0.4-0.1-0.8-0.2-1.1c-0.1-0.3-0.2-0.6-0.4-0.8c-0.2-0.2-0.3-0.3-0.5-0.4
			s-0.4-0.1-0.7-0.1c-0.2,0-0.4,0.1-0.6,0.2s-0.4,0.3-0.5,0.5s-0.2,0.5-0.3,0.8c-0.1,0.3-0.1,0.7-0.1,1.1L313.1,303.6z"/>
		<path fill="#515948" d="M322.7,306.7l-0.3-9.9l2.8-0.1c0.4,0,0.8,0,1.2,0.1c0.3,0.1,0.6,0.2,0.9,0.5c0.2,0.2,0.4,0.5,0.6,0.8
			c0.1,0.3,0.2,0.7,0.2,1.2s-0.1,0.9-0.3,1.2c-0.2,0.4-0.5,0.6-0.9,0.9c0.2,0.1,0.5,0.2,0.6,0.3c0.2,0.1,0.3,0.3,0.5,0.5
			c0.1,0.2,0.2,0.4,0.3,0.7c0.1,0.3,0.1,0.5,0.1,0.8c0,0.5,0,0.9-0.2,1.2c-0.1,0.4-0.3,0.7-0.5,0.9c-0.2,0.3-0.5,0.4-0.9,0.6
			s-0.7,0.2-1.1,0.2L322.7,306.7z M323.8,301h1.6c0.2,0,0.4,0,0.6-0.1s0.3-0.2,0.4-0.3c0.1-0.1,0.2-0.3,0.3-0.5s0.1-0.4,0.1-0.7
			c0-0.5-0.1-0.9-0.4-1.2c-0.2-0.2-0.6-0.4-1.1-0.3h-1.6L323.8,301z M323.8,302l0.1,3.6l1.7-0.1c0.2,0,0.5-0.1,0.7-0.1
			c0.2-0.1,0.3-0.2,0.5-0.4c0.1-0.2,0.2-0.3,0.3-0.6c0.1-0.2,0.1-0.5,0.1-0.7s0-0.5-0.1-0.7s-0.2-0.4-0.3-0.6
			c-0.1-0.2-0.3-0.3-0.5-0.3c-0.2-0.1-0.4-0.1-0.7-0.1L323.8,302z"/>
		<path fill="#515948" d="M333.9,306.4c0-0.1-0.1-0.2-0.1-0.3c0-0.1-0.1-0.3-0.1-0.5c-0.1,0.1-0.2,0.3-0.3,0.4
			c-0.1,0.1-0.2,0.2-0.4,0.3c-0.1,0.1-0.3,0.2-0.4,0.2s-0.3,0.1-0.5,0.1c-0.3,0-0.6,0-0.9-0.1s-0.5-0.2-0.7-0.4
			c-0.2-0.2-0.3-0.4-0.5-0.7s-0.2-0.6-0.2-0.9c0-0.4,0-0.7,0.2-1s0.3-0.6,0.5-0.8c0.2-0.2,0.5-0.4,0.9-0.5s0.8-0.2,1.3-0.2h0.8v-0.8
			c0-0.4-0.1-0.8-0.3-0.9c-0.2-0.2-0.5-0.3-0.9-0.3c-0.2,0-0.4,0-0.5,0.1c-0.2,0.1-0.3,0.2-0.4,0.3c-0.1,0.1-0.2,0.2-0.2,0.4
			c-0.1,0.1-0.1,0.3-0.1,0.4h-1.2c0-0.3,0-0.5,0.2-0.8c0.1-0.3,0.3-0.5,0.5-0.7s0.5-0.4,0.8-0.5s0.7-0.2,1-0.2s0.7,0,0.9,0.1
			c0.3,0.1,0.5,0.2,0.8,0.4c0.2,0.2,0.4,0.4,0.5,0.7c0.1,0.3,0.2,0.6,0.2,1l0.1,3.6c0,0.1,0,0.3,0,0.4s0,0.3,0.1,0.4
			c0,0.1,0.1,0.3,0.1,0.4s0.1,0.2,0.1,0.3v0.1H333.9z M332.3,305.4c0.2,0,0.3,0,0.5-0.1c0.1-0.1,0.3-0.1,0.4-0.2s0.2-0.2,0.3-0.3
			c0.1-0.1,0.2-0.2,0.2-0.3l-0.1-1.8H333c-0.3,0-0.6,0-0.8,0.1c-0.2,0.1-0.4,0.2-0.6,0.3c-0.2,0.1-0.3,0.3-0.4,0.5s-0.1,0.4-0.1,0.6
			s0,0.4,0.1,0.6s0.1,0.3,0.2,0.4s0.2,0.2,0.4,0.2C331.9,305.4,332.1,305.4,332.3,305.4z"/>
		<path fill="#515948" d="M339.4,305.3c0.2,0,0.3,0,0.5-0.1s0.3-0.1,0.4-0.3c0.1-0.1,0.2-0.3,0.3-0.5s0.1-0.4,0.1-0.7h1.1
			c0,0.4-0.1,0.7-0.2,1s-0.3,0.6-0.5,0.8c-0.2,0.2-0.5,0.4-0.8,0.5s-0.6,0.2-0.9,0.2c-0.5,0-0.9,0-1.3-0.2s-0.7-0.4-0.9-0.6
			c-0.2-0.3-0.4-0.6-0.6-1.1c-0.1-0.4-0.2-0.9-0.2-1.4v-0.8c0-0.5,0-1,0.1-1.4s0.3-0.8,0.5-1.1s0.5-0.5,0.9-0.7
			c0.3-0.2,0.8-0.3,1.2-0.3c0.4,0,0.7,0,1,0.2c0.3,0.1,0.6,0.3,0.8,0.5c0.2,0.2,0.4,0.5,0.5,0.8s0.2,0.7,0.2,1.1h-1.1
			c0-0.5-0.2-1-0.4-1.2c-0.2-0.3-0.6-0.4-1-0.4c-0.3,0-0.6,0.1-0.8,0.2c-0.2,0.1-0.4,0.3-0.5,0.5s-0.2,0.5-0.2,0.8s-0.1,0.6,0,1v0.8
			c0,0.4,0,0.7,0.1,1s0.1,0.5,0.3,0.7c0.1,0.2,0.3,0.4,0.5,0.5C338.8,305.3,339.1,305.3,339.4,305.3z"/>
		<path fill="#515948" d="M345.1,302.6l-0.6,0.8l0.1,2.6h-1.2l-0.3-10.5h1.2l0.2,6.3l0.5-0.8l1.7-2.5h1.4l-2.3,3.2l2.8,4.2h-1.4
			L345.1,302.6z"/>
	</g>
	<g enable-background="new    ">
		<path fill="#515948" d="M317.6,323.7h-1.3l-0.1-4.6l-4,0.1l0.1,4.6h-1.2l-0.3-9.9h1.2l0.1,4.3l4-0.1l-0.1-4.3h1.3L317.6,323.7z"/>
		<path fill="#515948" d="M319.2,319.6c0-0.6,0-1.1,0.2-1.5c0.1-0.4,0.3-0.8,0.6-1.1c0.2-0.3,0.5-0.5,0.9-0.7
			c0.3-0.2,0.7-0.2,1.1-0.3c0.4,0,0.8,0.1,1.1,0.2c0.4,0.1,0.7,0.3,0.9,0.6c0.3,0.3,0.5,0.6,0.6,1.1s0.3,0.9,0.3,1.5v0.7
			c0,0.6,0,1.1-0.2,1.5c-0.1,0.4-0.3,0.8-0.6,1.1c-0.2,0.3-0.5,0.5-0.9,0.7c-0.3,0.2-0.7,0.2-1.1,0.3c-0.4,0-0.8,0-1.1-0.2
			s-0.7-0.3-0.9-0.6s-0.5-0.6-0.6-1.1s-0.3-0.9-0.3-1.5V319.6z M320.5,320.2c0,0.4,0.1,0.8,0.2,1.1s0.2,0.6,0.4,0.8
			c0.2,0.2,0.3,0.3,0.5,0.4s0.4,0.1,0.7,0.1c1.1,0,1.6-0.9,1.6-2.5v-0.7c0-0.4-0.1-0.8-0.2-1.1c-0.1-0.3-0.2-0.6-0.4-0.8
			s-0.3-0.3-0.5-0.4s-0.4-0.1-0.7-0.1c-0.2,0-0.4,0.1-0.6,0.2s-0.4,0.3-0.5,0.5s-0.2,0.5-0.3,0.8c-0.1,0.3-0.1,0.7-0.1,1.1
			L320.5,320.2z"/>
		<path fill="#515948" d="M327.5,316v0.7c0.2-0.3,0.5-0.5,0.7-0.6s0.6-0.2,1-0.2s0.7,0.1,1,0.2c0.3,0.2,0.6,0.4,0.7,0.8
			c0.2-0.3,0.5-0.6,0.8-0.8c0.3-0.2,0.7-0.3,1.1-0.3c0.3,0,0.6,0,0.9,0.1s0.5,0.2,0.7,0.5c0.2,0.2,0.3,0.5,0.4,0.8s0.2,0.7,0.2,1.2
			l0.1,4.9h-1.2l-0.1-4.9c0-0.3,0-0.6-0.1-0.8c-0.1-0.2-0.2-0.4-0.3-0.5c-0.1-0.1-0.2-0.2-0.4-0.2c-0.2,0-0.3-0.1-0.5-0.1
			s-0.4,0-0.5,0.1s-0.3,0.2-0.4,0.3c-0.1,0.1-0.2,0.3-0.2,0.5c-0.1,0.2-0.1,0.4-0.1,0.6l0,0l0.2,4.9h-1.2l-0.1-4.9
			c0-0.3,0-0.5-0.1-0.7s-0.2-0.4-0.3-0.5c-0.1-0.1-0.2-0.2-0.4-0.3c-0.2-0.1-0.3-0.1-0.5-0.1c-0.3,0-0.6,0.1-0.8,0.3
			c-0.2,0.2-0.4,0.4-0.5,0.7l0.2,5.5h-1.2l-0.2-7.4L327.5,316z"/>
		<path fill="#515948" d="M339.8,323.1c-0.4,0-0.8,0-1.2-0.2c-0.4-0.1-0.7-0.3-0.9-0.6c-0.3-0.3-0.5-0.6-0.6-1s-0.2-0.9-0.2-1.5V319
			c0-0.7,0-1.2,0.2-1.7c0.1-0.5,0.3-0.8,0.6-1.1c0.2-0.3,0.5-0.5,0.9-0.6c0.3-0.1,0.7-0.2,1-0.2c0.5,0,0.9,0,1.2,0.2
			c0.3,0.1,0.6,0.4,0.8,0.6c0.2,0.3,0.4,0.7,0.5,1.1s0.2,0.9,0.2,1.5v0.7l-4.1,0.1v0.2c0,0.8,0.2,1.4,0.5,1.7
			c0.3,0.4,0.7,0.5,1.3,0.5c0.2,0,0.4,0,0.6-0.1s0.3-0.1,0.4-0.2s0.3-0.2,0.4-0.3c0.1-0.1,0.2-0.2,0.3-0.3l0.7,0.7
			c-0.1,0.1-0.2,0.3-0.3,0.4c-0.1,0.1-0.3,0.3-0.5,0.4s-0.4,0.2-0.7,0.3C340.4,323.1,340.1,323.1,339.8,323.1z M339.5,316.5
			c-0.2,0-0.4,0-0.6,0.1s-0.3,0.2-0.5,0.4c-0.1,0.2-0.2,0.4-0.3,0.7c-0.1,0.3-0.1,0.6-0.1,1l2.9-0.1v-0.2c0-0.3-0.1-0.5-0.1-0.8
			c-0.1-0.2-0.1-0.4-0.2-0.6s-0.3-0.3-0.4-0.4C339.9,316.5,339.7,316.5,339.5,316.5z"/>
	</g>
</g>
</svg>
