<?xml version="1.0" encoding="utf-8"?>
<!-- Generator: Adobe Illustrator 19.1.0, SVG Export Plug-In . SVG Version: 6.00 Build 0)  -->
<svg version="1.1" id="Layer_1" xmlns="http://www.w3.org/2000/svg" xmlns:xlink="http://www.w3.org/1999/xlink" x="0px" y="0px"
	 viewBox="-1903 1110.5 431.5 431.5" style="enable-background:new -1903 1110.5 431.5 431.5;" xml:space="preserve">
<style type="text/css">
	.st0{fill:#3F51B5;}
</style>
<path class="st0" d="M-1535,1173.7c-40.6-40.7-94.7-63.1-152.3-63.2c-57.5,0.1-111.6,22.5-152.2,63.2
	c-40.8,40.7-63.2,94.9-63.2,152.5c0,57.6,22.4,111.8,63.2,152.6c40.6,40.6,94.7,63.1,152.2,63.2c57.6-0.1,111.6-22.6,152.3-63.2
	c40.8-40.8,63.2-95,63.2-152.6C-1471.8,1268.6-1494.2,1214.4-1535,1173.7z M-1641.6,1509.1c-14.7,3.7-30,5.6-45.7,5.6
	c-15.7,0-31-1.9-45.6-5.6v-115.3h0.1l45.5,52.2l45.6-52.2h0.1V1509.1z M-1687.2,1409.5l-46.8-54.8l15.3-38.6h63.1l15.3,38.6
	L-1687.2,1409.5z M-1709.7,1290.9l22.4-55.8l22.5,55.8H-1709.7z M-1554.3,1459.6c-17.4,17.5-39.2,32.3-61.3,41.6v-146.3
	c0-2.9-0.5-5.7-1.4-8.3c0-0.1-0.1-0.2-0.1-0.4c-0.1-0.1-0.1-0.3-0.2-0.4c-7.2-19.2-35.4-91.9-47-120c0-0.1-0.1-0.2-0.1-0.3
	c-3.8-8.9-12.6-15.1-22.8-15.1s-19,6.2-22.8,15.1c0,0.1-0.1,0.2-0.1,0.3c-11.5,28.2-39.7,100.8-47,120c-0.1,0.1-0.1,0.3-0.2,0.4
	c0,0.1-0.1,0.2-0.1,0.4c-0.9,2.6-1.4,5.4-1.4,8.3v146.3c-22.1-9.3-43.9-24.1-61.3-41.6c-35.6-35.6-55.2-82.9-55.2-133.3
	c0-50.4,19.6-97.7,55.2-133.3c35.5-35.5,82.7-55.1,132.9-55.2c50.3,0.1,97.4,19.7,133,55.2c35.6,35.6,55.2,82.9,55.2,133.3
	C-1499.1,1376.7-1518.7,1424-1554.3,1459.6z"/>
</svg>
