<?xml version="1.0" encoding="utf-8"?>
<!-- Generator: Adobe Illustrator 18.1.1, SVG Export Plug-In . SVG Version: 6.00 Build 0)  -->
<!DOCTYPE svg PUBLIC "-//W3C//DTD SVG 1.1//EN" "http://www.w3.org/Graphics/SVG/1.1/DTD/svg11.dtd">
<svg version="1.1" id="Layer_1" xmlns="http://www.w3.org/2000/svg" xmlns:xlink="http://www.w3.org/1999/xlink" x="0px" y="0px"
	 width="431.5px" height="431.5px" viewBox="0 0 431.5 431.5" enable-background="new 0 0 431.5 431.5" xml:space="preserve">
<path fill="#1FBCB8" d="M368.3,63.2C327.6,22.4,273.4,0,215.7,0C158.1,0,103.9,22.4,63.2,63.2C22.4,103.9,0,158.1,0,215.7
	c0,57.6,22.4,111.8,63.2,152.6c40.7,40.7,94.9,63.2,152.6,63.2c57.6,0,111.8-22.4,152.6-63.2c40.7-40.7,63.2-94.9,63.2-152.6
	C431.5,158.1,409.1,103.9,368.3,63.2z M246.9,205.7c0.7,0,1.4,0.4,1.7,1.1l14.8,36.4c0.2,0.6,0.2,1.2-0.2,1.8l-45.9,53.2
	c-0.3,0.5-0.9,0.8-1.6,0.8c-0.7,0-1.1-0.3-1.6-0.8l-45.5-54c-0.3-0.6-0.4-1.2-0.2-1.8l13.8-35.7c0.3-0.7,1-1.1,1.7-1.1H246.9z
	 M193,180.4l22.5-55.9l22.5,55.9H193z M169.8,398.6V283.3h0.1l40,49.2c1.2,1.9,3.4,3,5.6,3s4.3-1.1,5.6-3l40-49.4v115.7
	c-14.6,3.6-29.8,5.4-45.3,5.4C200,404.2,184.6,402.3,169.8,398.6z M349,349c-17.5,17.5-37.8,31.1-59.8,40.4V238.8
	c0-1-54.9-135.1-54.9-135.1c-1-2.4-3.5-4-6.1-4l-24.9,0.1c-2.6,0-5,1.6-6.1,4c0,0-54.9,134-54.9,135v150.7
	c-22.1-9.3-42.4-22.9-59.8-40.4c-35.6-35.6-55.2-82.9-55.2-133.3s19.6-97.7,55.2-133.3s82.9-55.2,133.3-55.2
	c50.3,0,97.7,19.6,133.3,55.2c35.6,35.6,55.2,82.9,55.2,133.3S384.6,313.4,349,349z"/>
</svg>
