<?xml version="1.0" encoding="utf-8"?>
<!-- Generator: Adobe Illustrator 18.1.0, SVG Export Plug-In . SVG Version: 6.00 Build 0)  -->
<!DOCTYPE svg PUBLIC "-//W3C//DTD SVG 1.1//EN" "http://www.w3.org/Graphics/SVG/1.1/DTD/svg11.dtd">
<svg version="1.1" id="Layer_1" xmlns="http://www.w3.org/2000/svg" xmlns:xlink="http://www.w3.org/1999/xlink" x="0px" y="0px"
	 viewBox="0 0 199.7 181.6" enable-background="new 0 0 199.7 181.6" xml:space="preserve">
<g>
	<path fill="#0544EB" d="M19.4,181.6h-3.5l-1.9-4.5H5.3l-1.9,4.5H0l8.2-18.7h3L19.4,181.6z M9.6,166.8l-3.2,7.4h6.4L9.6,166.8z"/>
	<path fill="#0544EB" d="M23.6,163h3.2v15.6h9.8v2.9h-13V163z"/>
	<path fill="#0544EB" d="M54.9,166H44.4v4.8h9.3v2.9h-9.3v5H55v2.9H41.1V163h13.8V166z"/>
	<path fill="#0544EB" d="M72.1,181.6l-4.9-7l-4.9,7h-3.7l6.8-9.5l-6.5-9.1h3.9l4.6,6.7L72,163h3.7l-6.5,9.1l6.7,9.5H72.1z"/>
	<path fill="#0544EB" d="M98.6,177h-0.1l-5.8-8.7v13.3h-3.2V163h3.5l5.7,8.8l5.7-8.8h3.5v18.6h-3.2v-13.3L98.6,177z"/>
	<path fill="#0544EB" d="M131.3,181.6h-3.5l-1.9-4.5h-8.8l-1.9,4.5h-3.3l8.2-18.7h3L131.3,181.6z M121.6,166.8l-3.2,7.4h6.4
		L121.6,166.8z"/>
	<path fill="#0544EB" d="M147.5,181.6l-4.6-6.5h-4.1v6.5h-3.2V163h8.3c1.1,0,2,0.1,2.9,0.4c0.9,0.3,1.6,0.7,2.2,1.2
		c0.6,0.5,1,1.1,1.4,1.9c0.3,0.7,0.5,1.6,0.5,2.5c0,0.8-0.1,1.5-0.3,2.1c-0.2,0.6-0.5,1.2-0.9,1.6c-0.4,0.5-0.9,0.9-1.4,1.2
		c-0.5,0.3-1.1,0.6-1.8,0.8l5,7H147.5z M146.4,166.8c-0.7-0.5-1.6-0.8-2.8-0.8h-4.8v6.3h4.8c1.2,0,2.1-0.3,2.8-0.9s1-1.3,1-2.3
		C147.4,168.1,147.1,167.3,146.4,166.8z"/>
	<path fill="#0544EB" d="M163.6,181.6h-3.3V166h-5.9v-3h15.1v3h-5.9V181.6z"/>
	<path fill="#0544EB" d="M177.5,163v18.6h-3.2V163H177.5z"/>
	<path fill="#0544EB" d="M196.5,163h3.2v18.6H197l-10.2-13.2v13.2h-3.2V163h3l9.9,12.9V163z"/>
</g>
<path fill="#0544EB" d="M98.2,0C58,0,25.3,32.6,25.3,72.9c0,33.8,23,62.2,54.2,70.5v-36.9l18.6,27.3h0.3l18.6-27.3v37
	c31.2-8.3,54.2-36.7,54.2-70.5C171.1,32.6,138.5,0,98.2,0z M98.3,56l10.9,24.5H87.3L98.3,56z M98.3,125.6L79.7,97.7l5.4-12.1h26.1
	l5.5,12.3L98.3,125.6z"/>
</svg>
