<?xml version="1.0" encoding="utf-8"?>
<!-- Generator: Adobe Illustrator 18.1.0, SVG Export Plug-In . SVG Version: 6.00 Build 0)  -->
<!DOCTYPE svg PUBLIC "-//W3C//DTD SVG 1.1//EN" "http://www.w3.org/Graphics/SVG/1.1/DTD/svg11.dtd">
<svg version="1.1" id="Layer_1" xmlns="http://www.w3.org/2000/svg" xmlns:xlink="http://www.w3.org/1999/xlink" x="0px" y="0px"
	 viewBox="0 0 269 199" enable-background="new 0 0 269 199" xml:space="preserve">
<g>
	<path fill="#4C86C6" d="M-389.8-238.3h-4.4l-2.4-5.7h-11.1l-2.4,5.7h-4.2L-404-262h3.8L-389.8-238.3z M-402.1-257.1l-4,9.4h8.1
		L-402.1-257.1z"/>
	<path fill="#4C86C6" d="M-384.4-261.9h4.1v19.8h12.4v3.7h-16.5V-261.9z"/>
	<path fill="#4C86C6" d="M-344.9-258.1h-13.3v6.1h11.8v3.7h-11.8v6.3h13.5v3.7h-17.6v-23.5h17.4V-258.1z"/>
	<path fill="#4C86C6" d="M-323-238.3l-6.2-8.9l-6.2,8.9h-4.7l8.6-12l-8.2-11.6h4.9l5.8,8.4l5.9-8.4h4.7l-8.2,11.5l8.5,12H-323z"/>
	<path fill="#4C86C6" d="M-289.5-244.1h-0.1l-7.4-11v16.8h-4.1v-23.5h4.4l7.2,11.1l7.2-11.1h4.4v23.5h-4.1v-16.9L-289.5-244.1z"/>
	<path fill="#4C86C6" d="M-248.1-238.3h-4.4l-2.4-5.7H-266l-2.4,5.7h-4.2l10.4-23.7h3.8L-248.1-238.3z M-260.4-257.1l-4,9.4h8.1
		L-260.4-257.1z"/>
	<path fill="#4C86C6" d="M-227.6-238.3l-5.8-8.2h-5.2v8.2h-4.1v-23.5h10.5c1.3,0,2.6,0.2,3.6,0.5c1.1,0.3,2,0.8,2.8,1.5
		c0.8,0.6,1.3,1.4,1.7,2.4c0.4,0.9,0.6,2,0.6,3.1c0,1-0.1,1.9-0.4,2.6c-0.3,0.8-0.7,1.5-1.2,2.1c-0.5,0.6-1.1,1.1-1.8,1.5
		c-0.7,0.4-1.4,0.7-2.3,1l6.4,8.9H-227.6z M-229-257.1c-0.9-0.7-2.1-1-3.6-1h-6v7.9h6.1c1.5,0,2.7-0.4,3.5-1.1
		c0.9-0.7,1.3-1.7,1.3-2.9C-227.7-255.5-228.1-256.5-229-257.1z"/>
	<path fill="#4C86C6" d="M-207.2-238.3h-4.2V-258h-7.5v-3.8h19.1v3.8h-7.5V-238.3z"/>
	<path fill="#4C86C6" d="M-189.7-261.9v23.5h-4.1v-23.5H-189.7z"/>
	<path fill="#4C86C6" d="M-165.6-261.9h4.1v23.5h-3.5l-12.9-16.7v16.7h-4.1v-23.5h3.8l12.6,16.3V-261.9z"/>
</g>
<path fill="#4C86C6" d="M-289.5-421.4c-40.3,0-72.9,32.6-72.9,72.9c0,33.8,23,62.2,54.2,70.5V-315l18.6,27.3h0.3l18.6-27.3v37
	c31.2-8.3,54.2-36.7,54.2-70.5C-216.6-388.8-249.3-421.4-289.5-421.4z M-289.5-365.4l10.9,24.5h-21.9L-289.5-365.4z M-289.5-295.9
	l-18.6-27.8l5.4-12.1h26.1l5.5,12.3L-289.5-295.9z"/>
<g>
	<g>
		<path fill="#21B7D0" d="M-29.8-243.3h-4.4l-2.4-5.7h-11.1l-2.4,5.7h-4.2L-44-267h3.8L-29.8-243.3z M-42.1-262.1l-4,9.4h8.1
			L-42.1-262.1z"/>
		<path fill="#21B7D0" d="M-24.4-266.9h4.1v19.8H-8v3.7h-16.5V-266.9z"/>
		<path fill="#21B7D0" d="M15.1-263.1H1.8v6.1h11.8v3.7H1.8v6.3h13.5v3.7H-2.3v-23.5h17.4V-263.1z"/>
		<path fill="#21B7D0" d="M36.9-243.3l-6.2-8.9l-6.2,8.9h-4.7l8.6-12l-8.2-11.6H25l5.8,8.4l5.9-8.4h4.7l-8.2,11.5l8.5,12H36.9z"/>
		<path fill="#21B7D0" d="M70.5-249.1h-0.1l-7.4-11v16.8h-4.1v-23.5h4.4l7.2,11.1l7.2-11.1H82v23.5h-4.1v-16.9L70.5-249.1z"/>
		<path fill="#21B7D0" d="M111.9-243.3h-4.4l-2.4-5.7H94l-2.4,5.7h-4.2L97.7-267h3.8L111.9-243.3z M99.6-262.1l-4,9.4h8.1
			L99.6-262.1z"/>
		<path fill="#21B7D0" d="M132.4-243.3l-5.8-8.2h-5.2v8.2h-4.1v-23.5h10.5c1.3,0,2.6,0.2,3.6,0.5c1.1,0.3,2,0.8,2.8,1.5
			c0.8,0.6,1.3,1.4,1.7,2.4c0.4,0.9,0.6,2,0.6,3.1c0,1-0.1,1.9-0.4,2.6c-0.3,0.8-0.7,1.5-1.2,2.1c-0.5,0.6-1.1,1.1-1.8,1.5
			c-0.7,0.4-1.4,0.7-2.3,1l6.4,8.9H132.4z M131-262.1c-0.9-0.7-2.1-1-3.6-1h-6v7.9h6.1c1.5,0,2.7-0.4,3.5-1.1
			c0.9-0.7,1.3-1.7,1.3-2.9C132.3-260.5,131.9-261.5,131-262.1z"/>
		<path fill="#21B7D0" d="M152.8-243.3h-4.2V-263h-7.5v-3.8h19.1v3.8h-7.5V-243.3z"/>
		<path fill="#21B7D0" d="M170.3-266.9v23.5h-4.1v-23.5H170.3z"/>
		<path fill="#21B7D0" d="M194.3-266.9h4.1v23.5H195L182-260.1v16.7h-4.1v-23.5h3.8l12.6,16.3V-266.9z"/>
	</g>
	<path fill="#21B7D0" d="M70.4-421.4c-40.3,0-72.9,32.6-72.9,72.9c0,33.8,23,62.2,54.2,70.5V-315l18.6,27.3h0.3L89.2-315v37
		c31.2-8.3,54.2-36.7,54.2-70.5C143.3-388.8,110.7-421.4,70.4-421.4z M70.5-365.4l10.9,24.5H59.5L70.5-365.4z M70.5-295.9
		l-18.6-27.8l5.4-12.1h26.1l5.5,12.3L70.5-295.9z"/>
</g>
<g>
	<g>
		<path fill="#A2D8D5" d="M330.2-243.3h-4.4l-2.4-5.7h-11.1l-2.4,5.7h-4.2L316-267h3.8L330.2-243.3z M317.8-262.1l-4,9.4h8.1
			L317.8-262.1z"/>
		<path fill="#A2D8D5" d="M335.6-266.9h4.1v19.8H352v3.7h-16.5V-266.9z"/>
		<path fill="#A2D8D5" d="M375.1-263.1h-13.3v6.1h11.8v3.7h-11.8v6.3h13.5v3.7h-17.6v-23.5h17.4V-263.1z"/>
		<path fill="#A2D8D5" d="M396.9-243.3l-6.2-8.9l-6.2,8.9h-4.7l8.6-12l-8.2-11.6h4.9l5.8,8.4l5.9-8.4h4.7l-8.2,11.5l8.5,12H396.9z"
			/>
		<path fill="#A2D8D5" d="M430.4-249.1h-0.1l-7.4-11v16.8h-4.1v-23.5h4.4l7.2,11.1l7.2-11.1h4.4v23.5h-4.1v-16.9L430.4-249.1z"/>
		<path fill="#A2D8D5" d="M471.9-243.3h-4.4l-2.4-5.7H454l-2.4,5.7h-4.2l10.4-23.7h3.8L471.9-243.3z M459.5-262.1l-4,9.4h8.1
			L459.5-262.1z"/>
		<path fill="#A2D8D5" d="M492.4-243.3l-5.8-8.2h-5.2v8.2h-4.1v-23.5h10.5c1.3,0,2.6,0.2,3.6,0.5c1.1,0.3,2,0.8,2.8,1.5
			c0.8,0.6,1.3,1.4,1.7,2.4c0.4,0.9,0.6,2,0.6,3.1c0,1-0.1,1.9-0.4,2.6c-0.3,0.8-0.7,1.5-1.2,2.1c-0.5,0.6-1.1,1.1-1.8,1.5
			c-0.7,0.4-1.4,0.7-2.3,1l6.4,8.9H492.4z M491-262.1c-0.9-0.7-2.1-1-3.6-1h-6v7.9h6.1c1.5,0,2.7-0.4,3.5-1.1
			c0.9-0.7,1.3-1.7,1.3-2.9C492.3-260.5,491.9-261.5,491-262.1z"/>
		<path fill="#A2D8D5" d="M512.8-243.3h-4.2V-263h-7.5v-3.8h19.1v3.8h-7.5V-243.3z"/>
		<path fill="#A2D8D5" d="M530.3-266.9v23.5h-4.1v-23.5H530.3z"/>
		<path fill="#A2D8D5" d="M554.3-266.9h4.1v23.5H555L542-260.1v16.7h-4.1v-23.5h3.8l12.6,16.3V-266.9z"/>
	</g>
	<path fill="#A2D8D5" d="M430.4-421.4c-40.3,0-72.9,32.6-72.9,72.9c0,33.8,23,62.2,54.2,70.5V-315l18.6,27.3h0.3l18.6-27.3v37
		c31.2-8.3,54.2-36.7,54.2-70.5C503.3-388.8,470.7-421.4,430.4-421.4z M430.4-365.4l10.9,24.5h-21.9L430.4-365.4z M430.5-295.9
		l-18.6-27.8l5.4-12.1h26.1l5.5,12.3L430.5-295.9z"/>
</g>
<g>
	<g>
		<path fill="#6D91CB" d="M-389.8-559.8h-4.4l-2.4-5.7h-11.1l-2.4,5.7h-4.2l10.4-23.7h3.8L-389.8-559.8z M-402.1-578.6l-4,9.4h8.1
			L-402.1-578.6z"/>
		<path fill="#6D91CB" d="M-384.4-583.4h4.1v19.8h12.4v3.7h-16.5V-583.4z"/>
		<path fill="#6D91CB" d="M-344.9-579.6h-13.3v6.1h11.8v3.7h-11.8v6.3h13.5v3.7h-17.6v-23.5h17.4V-579.6z"/>
		<path fill="#6D91CB" d="M-323-559.8l-6.2-8.9l-6.2,8.9h-4.7l8.6-12l-8.2-11.6h4.9l5.8,8.4l5.9-8.4h4.7l-8.2,11.5l8.5,12H-323z"/>
		<path fill="#6D91CB" d="M-289.5-565.6h-0.1l-7.4-11v16.8h-4.1v-23.5h4.4l7.2,11.1l7.2-11.1h4.4v23.5h-4.1v-16.9L-289.5-565.6z"/>
		<path fill="#6D91CB" d="M-248.1-559.8h-4.4l-2.4-5.7H-266l-2.4,5.7h-4.2l10.4-23.7h3.8L-248.1-559.8z M-260.4-578.6l-4,9.4h8.1
			L-260.4-578.6z"/>
		<path fill="#6D91CB" d="M-227.6-559.8l-5.8-8.2h-5.2v8.2h-4.1v-23.5h10.5c1.3,0,2.6,0.2,3.6,0.5c1.1,0.3,2,0.8,2.8,1.5
			c0.8,0.6,1.3,1.4,1.7,2.4c0.4,0.9,0.6,2,0.6,3.1c0,1-0.1,1.9-0.4,2.6c-0.3,0.8-0.7,1.5-1.2,2.1c-0.5,0.6-1.1,1.1-1.8,1.5
			c-0.7,0.4-1.4,0.7-2.3,1l6.4,8.9H-227.6z M-229-578.6c-0.9-0.7-2.1-1-3.6-1h-6v7.9h6.1c1.5,0,2.7-0.4,3.5-1.1
			c0.9-0.7,1.3-1.7,1.3-2.9C-227.7-577-228.1-578-229-578.6z"/>
		<path fill="#6D91CB" d="M-207.2-559.8h-4.2v-19.7h-7.5v-3.8h19.1v3.8h-7.5V-559.8z"/>
		<path fill="#6D91CB" d="M-189.7-583.4v23.5h-4.1v-23.5H-189.7z"/>
		<path fill="#6D91CB" d="M-165.6-583.4h4.1v23.5h-3.5l-12.9-16.7v16.7h-4.1v-23.5h3.8l12.6,16.3V-583.4z"/>
	</g>
	<path fill="#6D91CB" d="M-289.5-737.9c-40.3,0-72.9,32.6-72.9,72.9c0,33.8,23,62.2,54.2,70.5v-36.9l18.6,27.3h0.3l18.6-27.3v37
		c31.2-8.3,54.2-36.7,54.2-70.5C-216.6-705.3-249.3-737.9-289.5-737.9z M-289.5-681.9l10.9,24.5h-21.9L-289.5-681.9z M-289.5-612.3
		l-18.6-27.8l5.4-12.1h26.1l5.5,12.3L-289.5-612.3z"/>
</g>
<g>
	<g>
		<path fill="#4D69B1" d="M-29.8-559.8h-4.4l-2.4-5.7h-11.1l-2.4,5.7h-4.2l10.4-23.7h3.8L-29.8-559.8z M-42.1-578.6l-4,9.4h8.1
			L-42.1-578.6z"/>
		<path fill="#4D69B1" d="M-24.4-583.4h4.1v19.8H-8v3.7h-16.5V-583.4z"/>
		<path fill="#4D69B1" d="M15.1-579.6H1.8v6.1h11.8v3.7H1.8v6.3h13.5v3.7H-2.3v-23.5h17.4V-579.6z"/>
		<path fill="#4D69B1" d="M36.9-559.8l-6.2-8.9l-6.2,8.9h-4.7l8.6-12l-8.2-11.6H25l5.8,8.4l5.9-8.4h4.7l-8.2,11.5l8.5,12H36.9z"/>
		<path fill="#4D69B1" d="M70.5-565.6h-0.1l-7.4-11v16.8h-4.1v-23.5h4.4l7.2,11.1l7.2-11.1H82v23.5h-4.1v-16.9L70.5-565.6z"/>
		<path fill="#4D69B1" d="M111.9-559.8h-4.4l-2.4-5.7H94l-2.4,5.7h-4.2l10.4-23.7h3.8L111.9-559.8z M99.6-578.6l-4,9.4h8.1
			L99.6-578.6z"/>
		<path fill="#4D69B1" d="M132.4-559.8l-5.8-8.2h-5.2v8.2h-4.1v-23.5h10.5c1.3,0,2.6,0.2,3.6,0.5c1.1,0.3,2,0.8,2.8,1.5
			c0.8,0.6,1.3,1.4,1.7,2.4c0.4,0.9,0.6,2,0.6,3.1c0,1-0.1,1.9-0.4,2.6c-0.3,0.8-0.7,1.5-1.2,2.1c-0.5,0.6-1.1,1.1-1.8,1.5
			c-0.7,0.4-1.4,0.7-2.3,1l6.4,8.9H132.4z M131-578.6c-0.9-0.7-2.1-1-3.6-1h-6v7.9h6.1c1.5,0,2.7-0.4,3.5-1.1
			c0.9-0.7,1.3-1.7,1.3-2.9C132.3-577,131.9-578,131-578.6z"/>
		<path fill="#4D69B1" d="M152.8-559.8h-4.2v-19.7h-7.5v-3.8h19.1v3.8h-7.5V-559.8z"/>
		<path fill="#4D69B1" d="M170.3-583.4v23.5h-4.1v-23.5H170.3z"/>
		<path fill="#4D69B1" d="M194.3-583.4h4.1v23.5H195L182-576.6v16.7h-4.1v-23.5h3.8l12.6,16.3V-583.4z"/>
	</g>
	<path fill="#4D69B1" d="M70.4-737.9c-40.3,0-72.9,32.6-72.9,72.9c0,33.8,23,62.2,54.2,70.5v-36.9l18.6,27.3h0.3l18.6-27.3v37
		c31.2-8.3,54.2-36.7,54.2-70.5C143.3-705.3,110.7-737.9,70.4-737.9z M70.5-681.9l10.9,24.5H59.5L70.5-681.9z M70.5-612.3
		l-18.6-27.8l5.4-12.1h26.1l5.5,12.3L70.5-612.3z"/>
</g>
<g>
	<g>
		<path fill="#8CCCF0" d="M330.2-559.8h-4.4l-2.4-5.7h-11.1l-2.4,5.7h-4.2l10.4-23.7h3.8L330.2-559.8z M317.8-578.6l-4,9.4h8.1
			L317.8-578.6z"/>
		<path fill="#8CCCF0" d="M335.6-583.4h4.1v19.8H352v3.7h-16.5V-583.4z"/>
		<path fill="#8CCCF0" d="M375.1-579.6h-13.3v6.1h11.8v3.7h-11.8v6.3h13.5v3.7h-17.6v-23.5h17.4V-579.6z"/>
		<path fill="#8CCCF0" d="M396.9-559.8l-6.2-8.9l-6.2,8.9h-4.7l8.6-12l-8.2-11.6h4.9l5.8,8.4l5.9-8.4h4.7l-8.2,11.5l8.5,12H396.9z"
			/>
		<path fill="#8CCCF0" d="M430.4-565.6h-0.1l-7.4-11v16.8h-4.1v-23.5h4.4l7.2,11.1l7.2-11.1h4.4v23.5h-4.1v-16.9L430.4-565.6z"/>
		<path fill="#8CCCF0" d="M471.9-559.8h-4.4l-2.4-5.7H454l-2.4,5.7h-4.2l10.4-23.7h3.8L471.9-559.8z M459.5-578.6l-4,9.4h8.1
			L459.5-578.6z"/>
		<path fill="#8CCCF0" d="M492.4-559.8l-5.8-8.2h-5.2v8.2h-4.1v-23.5h10.5c1.3,0,2.6,0.2,3.6,0.5c1.1,0.3,2,0.8,2.8,1.5
			c0.8,0.6,1.3,1.4,1.7,2.4c0.4,0.9,0.6,2,0.6,3.1c0,1-0.1,1.9-0.4,2.6c-0.3,0.8-0.7,1.5-1.2,2.1c-0.5,0.6-1.1,1.1-1.8,1.5
			c-0.7,0.4-1.4,0.7-2.3,1l6.4,8.9H492.4z M491-578.6c-0.9-0.7-2.1-1-3.6-1h-6v7.9h6.1c1.5,0,2.7-0.4,3.5-1.1
			c0.9-0.7,1.3-1.7,1.3-2.9C492.3-577,491.9-578,491-578.6z"/>
		<path fill="#8CCCF0" d="M512.8-559.8h-4.2v-19.7h-7.5v-3.8h19.1v3.8h-7.5V-559.8z"/>
		<path fill="#8CCCF0" d="M530.3-583.4v23.5h-4.1v-23.5H530.3z"/>
		<path fill="#8CCCF0" d="M554.3-583.4h4.1v23.5H555L542-576.6v16.7h-4.1v-23.5h3.8l12.6,16.3V-583.4z"/>
	</g>
	<path fill="#8CCCF0" d="M430.4-737.9c-40.3,0-72.9,32.6-72.9,72.9c0,33.8,23,62.2,54.2,70.5v-36.9l18.6,27.3h0.3l18.6-27.3v37
		c31.2-8.3,54.2-36.7,54.2-70.5C503.3-705.3,470.7-737.9,430.4-737.9z M430.4-681.9l10.9,24.5h-21.9L430.4-681.9z M430.5-612.3
		l-18.6-27.8l5.4-12.1h26.1l5.5,12.3L430.5-612.3z"/>
</g>
<g>
	<g>
		<path fill="#3885C6" d="M-389.8-876.3h-4.4l-2.4-5.7h-11.1l-2.4,5.7h-4.2L-404-900h3.8L-389.8-876.3z M-402.1-895.1l-4,9.4h8.1
			L-402.1-895.1z"/>
		<path fill="#3885C6" d="M-384.4-899.8h4.1v19.8h12.4v3.7h-16.5V-899.8z"/>
		<path fill="#3885C6" d="M-344.9-896.1h-13.3v6.1h11.8v3.7h-11.8v6.3h13.5v3.7h-17.6v-23.5h17.4V-896.1z"/>
		<path fill="#3885C6" d="M-323-876.3l-6.2-8.9l-6.2,8.9h-4.7l8.6-12l-8.2-11.6h4.9l5.8,8.4l5.9-8.4h4.7l-8.2,11.5l8.5,12H-323z"/>
		<path fill="#3885C6" d="M-289.5-882.1h-0.1l-7.4-11v16.8h-4.1v-23.5h4.4l7.2,11.1l7.2-11.1h4.4v23.5h-4.1v-16.9L-289.5-882.1z"/>
		<path fill="#3885C6" d="M-248.1-876.3h-4.4l-2.4-5.7H-266l-2.4,5.7h-4.2l10.4-23.7h3.8L-248.1-876.3z M-260.4-895.1l-4,9.4h8.1
			L-260.4-895.1z"/>
		<path fill="#3885C6" d="M-227.6-876.3l-5.8-8.2h-5.2v8.2h-4.1v-23.5h10.5c1.3,0,2.6,0.2,3.6,0.5c1.1,0.3,2,0.8,2.8,1.5
			c0.8,0.6,1.3,1.4,1.7,2.4c0.4,0.9,0.6,2,0.6,3.1c0,1-0.1,1.9-0.4,2.6c-0.3,0.8-0.7,1.5-1.2,2.1c-0.5,0.6-1.1,1.1-1.8,1.5
			c-0.7,0.4-1.4,0.7-2.3,1l6.4,8.9H-227.6z M-229-895.1c-0.9-0.7-2.1-1-3.6-1h-6v7.9h6.1c1.5,0,2.7-0.4,3.5-1.1
			c0.9-0.7,1.3-1.7,1.3-2.9C-227.7-893.5-228.1-894.4-229-895.1z"/>
		<path fill="#3885C6" d="M-207.2-876.3h-4.2V-896h-7.5v-3.8h19.1v3.8h-7.5V-876.3z"/>
		<path fill="#3885C6" d="M-189.7-899.8v23.5h-4.1v-23.5H-189.7z"/>
		<path fill="#3885C6" d="M-165.6-899.8h4.1v23.5h-3.5l-12.9-16.7v16.7h-4.1v-23.5h3.8l12.6,16.3V-899.8z"/>
	</g>
	<path fill="#3885C6" d="M-289.5-1054.4c-40.3,0-72.9,32.6-72.9,72.9c0,33.8,23,62.2,54.2,70.5v-36.9l18.6,27.3h0.3l18.6-27.3v37
		c31.2-8.3,54.2-36.7,54.2-70.5C-216.6-1021.8-249.3-1054.4-289.5-1054.4z M-289.5-998.4l10.9,24.5h-21.9L-289.5-998.4z
		 M-289.5-928.8l-18.6-27.8l5.4-12.1h26.1l5.5,12.3L-289.5-928.8z"/>
</g>
<g>
	<path fill="#00AEEF" d="M-29.8-870.3h-4.4l-2.4-5.7h-11.1l-2.4,5.7h-4.2L-44-894h3.8L-29.8-870.3z M-42.1-889.1l-4,9.4h8.1
		L-42.1-889.1z"/>
	<path fill="#00AEEF" d="M-24.4-893.8h4.1v19.8H-8v3.7h-16.5V-893.8z"/>
	<path fill="#00AEEF" d="M15.1-890.1H1.8v6.1h11.8v3.7H1.8v6.3h13.5v3.7H-2.3v-23.5h17.4V-890.1z"/>
	<path fill="#00AEEF" d="M36.9-870.3l-6.2-8.9l-6.2,8.9h-4.7l8.6-12l-8.2-11.6H25l5.8,8.4l5.9-8.4h4.7l-8.2,11.5l8.5,12H36.9z"/>
	<path fill="#00AEEF" d="M70.5-876.1h-0.1l-7.4-11v16.8h-4.1v-23.5h4.4l7.2,11.1l7.2-11.1H82v23.5h-4.1v-16.9L70.5-876.1z"/>
	<path fill="#00AEEF" d="M111.9-870.3h-4.4l-2.4-5.7H94l-2.4,5.7h-4.2L97.7-894h3.8L111.9-870.3z M99.6-889.1l-4,9.4h8.1L99.6-889.1
		z"/>
	<path fill="#00AEEF" d="M132.4-870.3l-5.8-8.2h-5.2v8.2h-4.1v-23.5h10.5c1.3,0,2.6,0.2,3.6,0.5c1.1,0.3,2,0.8,2.8,1.5
		c0.8,0.6,1.3,1.4,1.7,2.4c0.4,0.9,0.6,2,0.6,3.1c0,1-0.1,1.9-0.4,2.6c-0.3,0.8-0.7,1.5-1.2,2.1c-0.5,0.6-1.1,1.1-1.8,1.5
		c-0.7,0.4-1.4,0.7-2.3,1l6.4,8.9H132.4z M131-889.1c-0.9-0.7-2.1-1-3.6-1h-6v7.9h6.1c1.5,0,2.7-0.4,3.5-1.1
		c0.9-0.7,1.3-1.7,1.3-2.9C132.3-887.5,131.9-888.4,131-889.1z"/>
	<path fill="#00AEEF" d="M152.8-870.3h-4.2V-890h-7.5v-3.8h19.1v3.8h-7.5V-870.3z"/>
	<path fill="#00AEEF" d="M170.3-893.8v23.5h-4.1v-23.5H170.3z"/>
	<path fill="#00AEEF" d="M194.3-893.8h4.1v23.5H195L182-887.1v16.7h-4.1v-23.5h3.8l12.6,16.3V-893.8z"/>
</g>
<path fill="#00AEEF" d="M70.4-1054.4c-40.3,0-72.9,32.6-72.9,72.9c0,33.8,23,62.2,54.2,70.5v-36.9l18.6,27.3h0.3L89.2-948v37
	c31.2-8.3,54.2-36.7,54.2-70.5C143.3-1021.8,110.7-1054.4,70.4-1054.4z M70.5-998.4l10.9,24.5H59.5L70.5-998.4z M70.5-928.8
	l-18.6-27.8l5.4-12.1h26.1l5.5,12.3L70.5-928.8z"/>
<g>
	<g>
		<path fill="#1CB2AA" d="M330.2-876.3h-4.4l-2.4-5.7h-11.1l-2.4,5.7h-4.2L316-900h3.8L330.2-876.3z M317.8-895.1l-4,9.4h8.1
			L317.8-895.1z"/>
		<path fill="#1CB2AA" d="M335.6-899.8h4.1v19.8H352v3.7h-16.5V-899.8z"/>
		<path fill="#1CB2AA" d="M375.1-896.1h-13.3v6.1h11.8v3.7h-11.8v6.3h13.5v3.7h-17.6v-23.5h17.4V-896.1z"/>
		<path fill="#1CB2AA" d="M396.9-876.3l-6.2-8.9l-6.2,8.9h-4.7l8.6-12l-8.2-11.6h4.9l5.8,8.4l5.9-8.4h4.7l-8.2,11.5l8.5,12H396.9z"
			/>
		<path fill="#1CB2AA" d="M430.4-882.1h-0.1l-7.4-11v16.8h-4.1v-23.5h4.4l7.2,11.1l7.2-11.1h4.4v23.5h-4.1v-16.9L430.4-882.1z"/>
		<path fill="#1CB2AA" d="M471.9-876.3h-4.4l-2.4-5.7H454l-2.4,5.7h-4.2l10.4-23.7h3.8L471.9-876.3z M459.5-895.1l-4,9.4h8.1
			L459.5-895.1z"/>
		<path fill="#1CB2AA" d="M492.4-876.3l-5.8-8.2h-5.2v8.2h-4.1v-23.5h10.5c1.3,0,2.6,0.2,3.6,0.5c1.1,0.3,2,0.8,2.8,1.5
			c0.8,0.6,1.3,1.4,1.7,2.4c0.4,0.9,0.6,2,0.6,3.1c0,1-0.1,1.9-0.4,2.6c-0.3,0.8-0.7,1.5-1.2,2.1c-0.5,0.6-1.1,1.1-1.8,1.5
			c-0.7,0.4-1.4,0.7-2.3,1l6.4,8.9H492.4z M491-895.1c-0.9-0.7-2.1-1-3.6-1h-6v7.9h6.1c1.5,0,2.7-0.4,3.5-1.1
			c0.9-0.7,1.3-1.7,1.3-2.9C492.3-893.5,491.9-894.4,491-895.1z"/>
		<path fill="#1CB2AA" d="M512.8-876.3h-4.2V-896h-7.5v-3.8h19.1v3.8h-7.5V-876.3z"/>
		<path fill="#1CB2AA" d="M530.3-899.8v23.5h-4.1v-23.5H530.3z"/>
		<path fill="#1CB2AA" d="M554.3-899.8h4.1v23.5H555L542-893.1v16.7h-4.1v-23.5h3.8l12.6,16.3V-899.8z"/>
	</g>
	<path fill="#1CB2AA" d="M430.4-1054.4c-40.3,0-72.9,32.6-72.9,72.9c0,33.8,23,62.2,54.2,70.5v-36.9l18.6,27.3h0.3l18.6-27.3v37
		c31.2-8.3,54.2-36.7,54.2-70.5C503.3-1021.8,470.7-1054.4,430.4-1054.4z M430.4-998.4l10.9,24.5h-21.9L430.4-998.4z M430.5-928.8
		l-18.6-27.8l5.4-12.1h26.1l5.5,12.3L430.5-928.8z"/>
</g>
<g>
	<path fill="#00AEEF" d="M31.7,191h-4.4l-2.4-5.7H13.8l-2.4,5.7H7.2l10.4-23.7h3.8L31.7,191z M19.4,172.2l-4,9.4h8.1L19.4,172.2z"/>
	<path fill="#00AEEF" d="M37.1,167.5h4.1v19.8h12.4v3.7H37.1V167.5z"/>
	<path fill="#00AEEF" d="M76.6,171.2H63.3v6.1h11.8v3.7H63.3v6.3h13.5v3.7H59.2v-23.5h17.4V171.2z"/>
	<path fill="#00AEEF" d="M98.4,191l-6.2-8.9L86,191h-4.7l8.6-12l-8.2-11.6h4.9l5.8,8.4l5.9-8.4h4.7L94.8,179l8.5,12H98.4z"/>
	<path fill="#00AEEF" d="M132,185.2h-0.1l-7.4-11V191h-4.1v-23.5h4.4l7.2,11.1l7.2-11.1h4.4V191h-4.1v-16.9L132,185.2z"/>
	<path fill="#00AEEF" d="M173.4,191H169l-2.4-5.7h-11.1l-2.4,5.7h-4.2l10.4-23.7h3.8L173.4,191z M161.1,172.2l-4,9.4h8.1
		L161.1,172.2z"/>
	<path fill="#00AEEF" d="M193.9,191l-5.8-8.2h-5.2v8.2h-4.1v-23.5h10.5c1.3,0,2.6,0.2,3.6,0.5c1.1,0.3,2,0.8,2.8,1.5
		c0.8,0.6,1.3,1.4,1.7,2.4c0.4,0.9,0.6,2,0.6,3.1c0,1-0.1,1.9-0.4,2.6c-0.3,0.8-0.7,1.5-1.2,2.1c-0.5,0.6-1.1,1.1-1.8,1.5
		c-0.7,0.4-1.4,0.7-2.3,1l6.4,8.9H193.9z M192.5,172.2c-0.9-0.7-2.1-1-3.6-1h-6v7.9h6.1c1.5,0,2.7-0.4,3.5-1.1
		c0.9-0.7,1.3-1.7,1.3-2.9C193.8,173.8,193.4,172.9,192.5,172.2z"/>
	<path fill="#00AEEF" d="M214.3,191h-4.2v-19.7h-7.5v-3.8h19.1v3.8h-7.5V191z"/>
	<path fill="#00AEEF" d="M231.8,167.5V191h-4.1v-23.5H231.8z"/>
	<path fill="#00AEEF" d="M255.9,167.5h4.1V191h-3.5l-12.9-16.7V191h-4.1v-23.5h3.8l12.6,16.3V167.5z"/>
</g>
<path fill="#00AEEF" d="M131.9,6.9C91.7,6.9,59,39.5,59,79.8c0,33.8,23,62.2,54.2,70.5v-36.9l18.6,27.3h0.3l18.6-27.3v37
	c31.2-8.3,54.2-36.7,54.2-70.5C204.8,39.5,172.2,6.9,131.9,6.9z M132,62.9l10.9,24.5H121L132,62.9z M132,132.5l-18.6-27.8l5.4-12.1
	H145l5.5,12.3L132,132.5z"/>
<g>
</g>
<g>
</g>
<g>
</g>
<g>
</g>
<g>
</g>
<g>
</g>
</svg>
