<?xml version="1.0" encoding="utf-8"?>
<!-- Generator: Adobe Illustrator 18.1.0, SVG Export Plug-In . SVG Version: 6.00 Build 0)  -->
<!DOCTYPE svg PUBLIC "-//W3C//DTD SVG 1.1//EN" "http://www.w3.org/Graphics/SVG/1.1/DTD/svg11.dtd">
<svg version="1.1" id="Layer_1" xmlns="http://www.w3.org/2000/svg" xmlns:xlink="http://www.w3.org/1999/xlink" x="0px" y="0px"
	 viewBox="50.3 226.3 612.1 612.1" enable-background="new 50.3 226.3 612.1 612.1" xml:space="preserve">
<path fill="#1BBCB8" d="M356.7,226.3h-0.4c-81.7,0-158.6,31.9-216.5,89.9S50.2,451,50.3,532.8c0.2,168.4,137.3,305.4,305.6,305.6
	h0.4c81.7,0,158.5-31.9,216.5-89.8c57.9-58,89.7-134.8,89.7-216.6C662.2,363.6,525,226.4,356.7,226.3z M323.5,513.8l32.4-72.7
	l32.4,72.7H323.5z M465.8,774.7V595c0-1.4-0.2-2.7-0.8-4l-90.1-198.9c-1.5-3.4-5.1-5.8-8.8-5.8h-19.3c-3.8,0-7.3,2.2-8.8,5.8
	L247.7,591c-0.6,1.3-0.8,2.6-0.8,4v179.7c-43.9-19.9-81.8-51.6-109.5-91.6c-30.8-44.5-47.1-96.7-47.1-150.8
	c0-146.7,119.4-265.9,265.9-265.9c146.7,0,265.9,119.4,265.9,265.9c0,54.1-16.3,106.3-47.1,150.8
	C547.5,723.1,509.7,754.6,465.8,774.7z M358.5,689.1c-0.5,0.7-1.3,1.2-2.2,1.2c-0.9,0-1.6-0.5-2.2-1.2l-64.5-96.7
	c-0.5-0.8-0.6-1.8-0.2-2.6l17-37.9c0.5-0.9,1.4-1.5,2.5-1.5H403c1.1,0,2,0.6,2.5,1.5l17.4,39c0.4,0.8,0.2,1.8-0.2,2.6L358.5,689.1z
	 M286.4,659.1l61.4,89.9c1.8,2.7,4.8,4.2,8,4.2c3.2,0,6.2-1.6,8-4.2l61.4-90.3v130.4c-22.5,6-45.7,9.1-69,9.1
	c-23.7,0-47.1-3.2-69.9-9.3V659.1H286.4z"/>
</svg>
