<?xml version="1.0" encoding="utf-8"?>
<!-- Generator: Adobe Illustrator 18.1.0, SVG Export Plug-In . SVG Version: 6.00 Build 0)  -->
<!DOCTYPE svg PUBLIC "-//W3C//DTD SVG 1.1//EN" "http://www.w3.org/Graphics/SVG/1.1/DTD/svg11.dtd">
<svg version="1.1" id="Layer_1" xmlns="http://www.w3.org/2000/svg" xmlns:xlink="http://www.w3.org/1999/xlink" x="0px" y="0px"
	 viewBox="53.3 139.3 513.4 513.4" enable-background="new 53.3 139.3 513.4 513.4" xml:space="preserve">
<path fill="#FFFFFF" d="M310.3,139.3c-141.8-0.2-257.2,115.2-257,257c0.2,141.1,115.3,256.3,256.4,256.4
	c141.8,0.2,257.2-115.2,257-257C566.6,254.6,451.4,139.4,310.3,139.3z M277.5,383.3l32.1-72.1l32.1,72.1H277.5z M247.7,493.9
	l57.6,84.3c1,1.4,2.6,2.3,4.3,2.3l0,0c1.7,0,3.4-0.9,4.3-2.3l57.6-84.6v122.7c-20,5.6-40.7,8.5-61.6,8.5c-21.1,0-42-2.9-62.3-8.7
	V493.9z M305.6,530.8l-54.7-82.1c-1-1.5-1.2-3.4-0.4-5.1l14.4-32.1c0.8-1.9,2.7-3.1,4.8-3.1h79.9c2.1,0,4,1.2,4.8,3.1l14.8,33.1
	c0.7,1.7,0.6,3.6-0.4,5.1l-54.4,81.1C312.3,533.9,307.7,533.9,305.6,530.8z M399.9,606.3V449.2c0-0.7-0.2-1.5-0.5-2.2L323,278.2
	c-0.9-1.9-2.7-3.1-4.8-3.1h-16.4c-2.1,0-3.9,1.2-4.8,3.1L220.6,447c-0.3,0.7-0.5,1.4-0.5,2.2v157.1c-39.7-17-73.6-44.8-98.3-80.6
	C95.3,487.4,81.3,442.5,81.3,396c0-126.1,102.6-228.7,228.7-228.7c126.1,0,228.7,102.6,228.7,228.7c0,46.6-14,91.4-40.5,129.7
	C473.5,561.5,439.6,589.2,399.9,606.3z"/>
</svg>
