<?xml version="1.0" encoding="utf-8"?>
<!-- Generator: Adobe Illustrator 18.1.0, SVG Export Plug-In . SVG Version: 6.00 Build 0)  -->
<!DOCTYPE svg PUBLIC "-//W3C//DTD SVG 1.1//EN" "http://www.w3.org/Graphics/SVG/1.1/DTD/svg11.dtd">
<svg version="1.1" id="Layer_1" xmlns="http://www.w3.org/2000/svg" xmlns:xlink="http://www.w3.org/1999/xlink" x="0px" y="0px"
	 viewBox="0 0 254.9 199.2" enable-background="new 0 0 254.9 199.2" xml:space="preserve">
<path display="none" fill="none" stroke="#010101" stroke-width="9" stroke-miterlimit="10" d="M429.4-7
	c-40.3,0-72.9,32.6-72.9,72.9c0,32.7,21.6,60.4,51.3,69.6c0.6,0.2,1.2,0.4,1.8,0.5c0.5,0.2,1.1,0.3,1.6,0.4c0.5,0.1,1,0.3,1.6,0.4
	V101l16.5,24.1h0.2l16.5-24.2v36c0.5-0.1,1.1-0.2,1.6-0.4c1.2-0.3,2.3-0.6,3.5-1c29.7-9.2,51.3-36.9,51.3-69.6
	C502.3,25.6,469.7-7,429.4-7z M439,77.4h-19.4l9.7-21.7L439,77.4z M429.4,117L413,92.4l4.8-10.7h23.1l4.8,10.9L429.4,117z"/>
<g>
	<path fill="#060809" d="M30.1,197.2h-4.2l-2.3-5.5H12.8l-2.3,5.5H6.4l10-22.9h3.7L30.1,197.2z M18.2,179l-3.9,9.1h7.8L18.2,179z"/>
	<path fill="#060809" d="M35.3,174.4h4v19.2h12v3.6H35.3V174.4z"/>
	<path fill="#060809" d="M73.6,178H60.7v5.9h11.4v3.6H60.7v6.1h13v3.6h-17v-22.8h16.8V178z"/>
	<path fill="#060809" d="M94.7,197.2l-6-8.6l-6,8.6h-4.6l8.3-11.6l-8-11.2h4.7l5.7,8.2l5.7-8.2h4.6l-7.9,11.1l8.3,11.6H94.7z"/>
	<path fill="#060809" d="M127.1,191.6H127l-7.1-10.7v16.3h-4v-22.8h4.3l6.9,10.8l6.9-10.8h4.3v22.8h-4v-16.3L127.1,191.6z"/>
	<path fill="#060809" d="M167.2,197.2h-4.2l-2.3-5.5h-10.8l-2.3,5.5h-4.1l10-22.9h3.7L167.2,197.2z M155.2,179l-3.9,9.1h7.8
		L155.2,179z"/>
	<path fill="#060809" d="M187,197.2l-5.6-7.9h-5v7.9h-4v-22.8h10.1c1.3,0,2.5,0.2,3.5,0.5c1.1,0.3,1.9,0.8,2.7,1.4
		c0.7,0.6,1.3,1.4,1.7,2.3c0.4,0.9,0.6,1.9,0.6,3c0,1-0.1,1.8-0.4,2.6c-0.3,0.7-0.6,1.4-1.1,2c-0.5,0.6-1,1.1-1.7,1.5
		c-0.7,0.4-1.4,0.7-2.2,0.9l6.1,8.6H187z M185.7,179c-0.8-0.6-2-1-3.5-1h-5.8v7.7h5.9c1.4,0,2.6-0.3,3.4-1c0.8-0.7,1.3-1.6,1.3-2.8
		C186.9,180.6,186.5,179.6,185.7,179z"/>
	<path fill="#060809" d="M206.7,197.2h-4v-19.1h-7.2v-3.7h18.5v3.7h-7.2V197.2z"/>
	<path fill="#060809" d="M223.7,174.4v22.8h-4v-22.8H223.7z"/>
	<path fill="#060809" d="M246.9,174.4h4v22.8h-3.3L235,181v16.2h-4v-22.8h3.7l12.2,15.7V174.4z"/>
</g>
<circle fill="none" stroke="#010101" stroke-width="6" stroke-miterlimit="10" cx="127.4" cy="75.9" r="72.9"/>
<path fill="#060809" d="M130.1,40.7h-5.4l-23.1,51v53.1h5.9v-43.5l19.6,28.7h0.3l19.6-28.8v43.6h6.1V91.7L130.1,40.7z M127.4,47.5
	l11.5,25.8h-23.1L127.4,47.5z M127.4,120.4l-19.6-29.4l5.7-12.7h27.6l5.8,13L127.4,120.4z"/>
<path display="none" fill="none" stroke="#010101" stroke-width="9" stroke-miterlimit="10" d="M429.4-7
	c-40.3,0-72.9,32.6-72.9,72.9c0,32.7,21.6,60.4,51.3,69.6c0.6,0.2,1.2,0.4,1.8,0.5c0.5,0.2,1.1,0.3,1.6,0.4c0.5,0.1,1,0.3,1.6,0.4
	V101l16.5,24.1h0.2l16.5-24.2v36c0.5-0.1,1.1-0.2,1.6-0.4c1.2-0.3,2.3-0.6,3.5-1c29.7-9.2,51.3-36.9,51.3-69.6
	C502.3,25.6,469.7-7,429.4-7z M439,77.4h-19.4l9.7-21.7L439,77.4z M429.4,117L413,92.4l4.8-10.7h23.1l4.8,10.9L429.4,117z"/>
<g>
</g>
<g>
</g>
<g>
</g>
<g>
</g>
<g>
</g>
<g>
</g>
</svg>
