<?xml version="1.0" encoding="utf-8"?>
<!-- Generator: Adobe Illustrator 18.1.0, SVG Export Plug-In . SVG Version: 6.00 Build 0)  -->
<!DOCTYPE svg PUBLIC "-//W3C//DTD SVG 1.1//EN" "http://www.w3.org/Graphics/SVG/1.1/DTD/svg11.dtd">
<svg version="1.1" id="Layer_1" xmlns="http://www.w3.org/2000/svg" xmlns:xlink="http://www.w3.org/1999/xlink" x="0px" y="0px"
	 viewBox="51.3 137.3 517.4 517.4" enable-background="new 51.3 137.3 517.4 517.4" xml:space="preserve">
<path fill="#FFFFFF" d="M310.3,137.3H310c-69.1,0-134,27-183,76c-48.9,49-75.8,114-75.8,183.1c0.2,142.3,116.1,258.3,258.4,258.4
	h0.3c0,0,0,0,0,0c69,0,134-27,182.9-76c48.9-49,75.8-114,75.8-183.1C568.6,253.4,452.6,137.4,310.3,137.3z M280.6,381.3l29-65.2
	l29,65.2H280.6z M401.9,603.2v-154c0-1-0.2-2-0.6-3l-76.5-168.8c-1.2-2.6-3.8-4.3-6.6-4.3h-16.4c-2.8,0-5.4,1.7-6.6,4.3l-76.5,168.8
	c-0.4,0.9-0.6,2-0.6,3v154c-38.1-17-70.8-44.1-94.7-78.7c-26.3-38-40.1-82.4-40.1-128.6C83.3,271,185,169.3,310,169.3
	S536.7,271,536.7,396c0,46.1-13.9,90.6-40.1,128.6C472.7,559.1,440,586.3,401.9,603.2z M367.1,448.5l-54.4,81.1
	c-0.6,0.9-1.6,1.4-2.7,1.4c-1.1,0-2.1-0.5-2.7-1.5l-54.7-82.1c-0.6-0.9-0.7-2.1-0.3-3.1l14.4-32.2c0.5-1.2,1.7-1.9,3-1.9h79.9
	c1.3,0,2.5,0.8,3,1.9l14.8,33.1C367.8,446.4,367.7,447.6,367.1,448.5z M249.7,500.3l53.9,79c1.4,2,3.6,3.2,6,3.2
	c2.4,0,4.6-1.2,6-3.2l53.9-79.2v114.7c-19.4,5.3-39.4,8-59.6,8c-20.4,0-40.7-2.7-60.3-8.2V500.3z"/>
</svg>
