<?xml version="1.0" encoding="utf-8"?>
<!-- Generator: Adobe Illustrator 18.1.1, SVG Export Plug-In . SVG Version: 6.00 Build 0)  -->
<!DOCTYPE svg PUBLIC "-//W3C//DTD SVG 1.1//EN" "http://www.w3.org/Graphics/SVG/1.1/DTD/svg11.dtd">
<svg version="1.1" id="Layer_1" xmlns="http://www.w3.org/2000/svg" xmlns:xlink="http://www.w3.org/1999/xlink" x="0px" y="0px"
	 width="431.5px" height="431.5px" viewBox="-89 181.5 431.5 431.5" enable-background="new -89 181.5 431.5 431.5"
	 xml:space="preserve">
<path fill="#FFFFFF" d="M279.3,244.7c-40.7-40.8-94.9-63.2-152.6-63.2c-57.6,0-111.8,22.4-152.5,63.2C-66.6,285.4-89,339.6-89,397.2
	S-66.6,509-25.8,549.8C14.9,590.5,69.1,613,126.8,613c57.6,0,111.8-22.4,152.6-63.2c40.7-40.7,63.2-94.9,63.2-152.6
	C342.5,339.6,320.1,285.4,279.3,244.7z M157.9,387.2c0.7,0,1.4,0.4,1.7,1.1l14.8,36.4c0.2,0.6,0.2,1.2-0.2,1.8l-45.9,53.2
	c-0.3,0.5-0.9,0.8-1.6,0.8c-0.7,0-1.1-0.3-1.6-0.8l-45.5-54c-0.3-0.6-0.4-1.2-0.2-1.8l13.8-35.7c0.3-0.7,1-1.1,1.7-1.1h63V387.2z
	 M104,361.9l22.5-55.9l22.5,55.9H104z M80.8,580.1V464.8h0.1l40,49.2c1.2,1.9,3.4,3,5.6,3s4.3-1.1,5.6-3l40-49.4v115.7
	c-14.6,3.6-29.8,5.4-45.3,5.4C111,585.7,95.6,583.8,80.8,580.1z M260,530.5c-17.5,17.5-37.8,31.1-59.8,40.4V420.3
	c0-1-54.9-135.1-54.9-135.1c-1-2.4-3.5-4-6.1-4l-24.9,0.1c-2.6,0-5,1.6-6.1,4c0,0-54.9,134-54.9,135V571
	c-22.1-9.3-42.4-22.9-59.8-40.4c-35.6-35.6-55.2-82.9-55.2-133.3S-42.1,299.6-6.5,264s82.9-55.2,133.3-55.2
	c50.3,0,97.7,19.6,133.3,55.2s55.2,82.9,55.2,133.3S295.6,494.9,260,530.5z"/>
</svg>
