<?xml version="1.0" encoding="utf-8"?>
<!-- Generator: Adobe Illustrator 19.1.0, SVG Export Plug-In . SVG Version: 6.00 Build 0)  -->
<svg version="1.1" id="Layer_1" xmlns="http://www.w3.org/2000/svg" xmlns:xlink="http://www.w3.org/1999/xlink" x="0px" y="0px"
	 viewBox="-645 364.5 431.6 431.5" style="enable-background:new -645 364.5 431.6 431.5;" xml:space="preserve">
<style type="text/css">
	.st0{fill:#FFFFFF;}
</style>
<path class="st0" d="M-276.7,427.7c-40.7-40.8-94.9-63.2-152.6-63.2c-57.6,0-111.8,22.4-152.5,63.2c-40.8,40.7-63.2,94.9-63.2,152.5
	s22.4,111.8,63.2,152.6c40.7,40.7,94.9,63.2,152.6,63.2c57.6,0,111.8-22.4,152.6-63.2c40.7-40.7,63.2-94.9,63.2-152.6
	C-213.5,522.6-235.9,468.4-276.7,427.7z M-398.1,570.2c0.7,0,1.4,0.4,1.7,1.1l14.8,36.4c0.2,0.6,0.2,1.2-0.2,1.8l-45.9,53.2
	c-0.3,0.5-0.9,0.8-1.6,0.8c-0.7,0-1.1-0.3-1.6-0.8l-45.5-54c-0.3-0.6-0.4-1.2-0.2-1.8l13.8-35.7c0.3-0.7,1-1.1,1.7-1.1h63
	L-398.1,570.2L-398.1,570.2z M-452,544.9l22.5-55.9l22.5,55.9H-452z M-475.2,763.1V647.8h0.1l40,49.2c1.2,1.9,3.4,3,5.6,3
	s4.3-1.1,5.6-3l40-49.4v115.7c-14.6,3.6-29.8,5.4-45.3,5.4C-445,768.7-460.4,766.8-475.2,763.1z M-296,713.5
	c-17.5,17.5-37.8,31.1-59.8,40.4V603.3c0-1-54.9-135.1-54.9-135.1c-1-2.4-3.5-4-6.1-4l-24.9,0.1c-2.6,0-5,1.6-6.1,4
	c0,0-54.9,134-54.9,135V754c-22.1-9.3-42.4-22.9-59.8-40.4c-35.6-35.6-55.2-82.9-55.2-133.3s19.6-97.7,55.2-133.3
	s82.9-55.2,133.3-55.2c50.3,0,97.7,19.6,133.3,55.2s55.2,82.9,55.2,133.3S-260.4,677.9-296,713.5z"/>
</svg>
