<?xml version="1.0" encoding="utf-8"?>
<!-- Generator: Adobe Illustrator 18.1.0, SVG Export Plug-In . SVG Version: 6.00 Build 0)  -->
<!DOCTYPE svg PUBLIC "-//W3C//DTD SVG 1.1//EN" "http://www.w3.org/Graphics/SVG/1.1/DTD/svg11.dtd">
<svg version="1.1" id="Layer_1" xmlns="http://www.w3.org/2000/svg" xmlns:xlink="http://www.w3.org/1999/xlink" x="0px" y="0px"
	 viewBox="50.3 136.3 519.4 519.4" enable-background="new 50.3 136.3 519.4 519.4" xml:space="preserve">
<path fill="#FFFFFF" d="M310.3,136.3H310c-69.3,0-134.6,27.1-183.7,76.3c-49.1,49.2-76.1,114.4-76,183.8
	c0.2,142.9,116.5,259.2,259.4,259.4h0.3c69.3,0,134.5-27.1,183.7-76.2c49.1-49.2,76.1-114.4,76.1-183.8
	C569.6,252.8,453.2,136.4,310.3,136.3z M282.2,380.3l27.5-61.7l27.5,61.7H282.2z M402.9,601.7V449.2c0-1.2-0.2-2.3-0.7-3.4
	L325.7,277c-1.3-2.9-4.3-4.9-7.5-4.9h-16.4c-3.2,0-6.2,1.9-7.5,4.9l-76.5,168.8c-0.5,1.1-0.7,2.2-0.7,3.4v152.5
	c-37.3-16.9-69.4-43.8-92.9-77.7c-26.1-37.8-40-82.1-40-128c0-124.5,101.3-225.7,225.7-225.7c124.5,0,225.7,101.3,225.7,225.7
	c0,45.9-13.8,90.2-40,128C472.3,557.9,440.2,584.7,402.9,601.7z M311.9,529.1c-0.4,0.6-1.1,1-1.9,1c-0.8,0-1.4-0.4-1.9-1L253.4,447
	c-0.4-0.7-0.5-1.5-0.2-2.2l14.4-32.2c0.4-0.8,1.2-1.3,2.1-1.3h79.9c0.9,0,1.7,0.5,2.1,1.3l14.8,33.1c0.3,0.7,0.2,1.5-0.2,2.2
	L311.9,529.1z M250.7,503.6l52.1,76.3c1.5,2.3,4.1,3.6,6.8,3.6c2.7,0,5.3-1.4,6.8-3.6l52.1-76.6V614c-19.1,5.1-38.8,7.7-58.6,7.7
	c-20.1,0-40-2.7-59.3-7.9V503.6z"/>
</svg>
