<?xml version="1.0" encoding="utf-8"?>
<!-- Generator: Adobe Illustrator 18.1.0, SVG Export Plug-In . SVG Version: 6.00 Build 0)  -->
<!DOCTYPE svg PUBLIC "-//W3C//DTD SVG 1.1//EN" "http://www.w3.org/Graphics/SVG/1.1/DTD/svg11.dtd">
<svg version="1.1" id="Layer_1" xmlns="http://www.w3.org/2000/svg" xmlns:xlink="http://www.w3.org/1999/xlink" x="0px" y="0px"
	 viewBox="0 0 183.8 183.8" enable-background="new 0 0 183.8 183.8" xml:space="preserve">
<rect x="0" y="0" fill="#FFFFFF" width="183.8" height="183.8"/>
<g>
	<path fill="#010101" d="M91.9,167.8c-41.9,0-75.9-34.1-75.9-75.9C16,50.1,50.1,16,91.9,16c41.9,0,75.9,34.1,75.9,75.9
		C167.8,133.8,133.8,167.8,91.9,167.8z M91.9,22C53.4,22,22,53.4,22,91.9s31.4,69.9,69.9,69.9c38.5,0,69.9-31.4,69.9-69.9
		S130.5,22,91.9,22z"/>
	<path fill="#060809" d="M94.6,56.8h-5.4l-23.1,51v53.1h5.9v-43.5l19.6,28.7H92l19.6-28.8v43.6h6.1v-53.1L94.6,56.8z M91.8,63.5
		l11.5,25.8H80.3L91.8,63.5z M91.9,136.5l-19.6-29.4L78,94.4h27.6l5.8,13L91.9,136.5z"/>
</g>
</svg>
